<svg width="108" height="17" viewBox="0 0 108 17" fill="none" xmlns="http://www.w3.org/2000/svg">
<path d="M5.47727 16H0.100852V1.45455H5.47017C6.95218 1.45455 8.22822 1.74574 9.2983 2.32812C10.3731 2.90578 11.2017 3.73911 11.7841 4.82812C12.3665 5.91241 12.6577 7.20975 12.6577 8.72017C12.6577 10.2353 12.3665 11.5374 11.7841 12.6264C11.2064 13.7154 10.3802 14.5511 9.3054 15.1335C8.23059 15.7112 6.95455 16 5.47727 16ZM3.61648 13.0028H5.34233C6.15672 13.0028 6.84564 12.8655 7.40909 12.5909C7.97727 12.3116 8.40578 11.8594 8.6946 11.2344C8.98816 10.6046 9.13494 9.76657 9.13494 8.72017C9.13494 7.67377 8.98816 6.84044 8.6946 6.22017C8.40104 5.59517 7.9678 5.14536 7.39489 4.87074C6.8267 4.59138 6.12595 4.4517 5.29261 4.4517H3.61648V13.0028ZM17.2855 16.1847C16.5895 16.1847 15.9716 16.0687 15.4318 15.8366C14.8968 15.5999 14.473 15.2448 14.1605 14.7713C13.8527 14.2931 13.6989 13.6941 13.6989 12.9744C13.6989 12.3684 13.8054 11.857 14.0185 11.4403C14.2315 11.0237 14.5251 10.6851 14.8991 10.4247C15.2732 10.1643 15.7041 9.9678 16.1918 9.83523C16.6795 9.69792 17.2003 9.60559 17.7543 9.55824C18.3745 9.50142 18.8741 9.44223 19.2528 9.38068C19.6316 9.31439 19.9063 9.22206 20.0767 9.10369C20.2519 8.98059 20.3395 8.80776 20.3395 8.58523V8.54972C20.3395 8.18513 20.214 7.90341 19.9631 7.70455C19.7121 7.50568 19.3736 7.40625 18.9474 7.40625C18.4882 7.40625 18.1188 7.50568 17.8395 7.70455C17.5601 7.90341 17.3826 8.17803 17.3068 8.52841L14.1037 8.41477C14.1984 7.75189 14.4422 7.16004 14.8352 6.6392C15.233 6.11364 15.7775 5.7017 16.4688 5.40341C17.1648 5.10038 18.0005 4.94886 18.9759 4.94886C19.6719 4.94886 20.3134 5.03172 20.9006 5.19744C21.4877 5.35843 21.9991 5.59517 22.4347 5.90767C22.8703 6.21544 23.2064 6.59422 23.4432 7.04403C23.6847 7.49384 23.8054 8.00758 23.8054 8.58523V16H20.5384V14.4801H20.4531C20.259 14.8494 20.0104 15.1619 19.7074 15.4176C19.4091 15.6733 19.0563 15.8651 18.6491 15.9929C18.2467 16.1207 17.7921 16.1847 17.2855 16.1847ZM18.358 13.9119C18.732 13.9119 19.0682 13.8362 19.3665 13.6847C19.6695 13.5331 19.911 13.3248 20.0909 13.0597C20.2708 12.7898 20.3608 12.4773 20.3608 12.1222V11.0852C20.2614 11.1373 20.1406 11.1847 19.9986 11.2273C19.8613 11.2699 19.7098 11.3101 19.544 11.348C19.3783 11.3859 19.2079 11.419 19.0327 11.4474C18.8575 11.4759 18.6894 11.5019 18.5284 11.5256C18.2017 11.5777 17.9223 11.6581 17.6903 11.767C17.4631 11.8759 17.2879 12.018 17.1648 12.1932C17.0464 12.3636 16.9872 12.5672 16.9872 12.804C16.9872 13.1638 17.1151 13.4384 17.3707 13.6278C17.6312 13.8172 17.9602 13.9119 18.358 13.9119ZM35.6207 5.09091L31.8778 16H27.9006L24.1648 5.09091H27.8224L29.8324 12.6051H29.946L31.9631 5.09091H35.6207ZM36.4524 16V5.09091H39.9254V16H36.4524ZM38.1996 3.8196C37.7071 3.8196 37.2857 3.65862 36.9354 3.33665C36.585 3.00994 36.4098 2.61695 36.4098 2.15767C36.4098 1.70312 36.585 1.31487 36.9354 0.992898C37.2857 0.666193 37.7048 0.50284 38.1925 0.50284C38.6849 0.50284 39.1039 0.666193 39.4496 0.992898C39.8 1.31487 39.9751 1.70312 39.9751 2.15767C39.9751 2.61695 39.8 3.00994 39.4496 3.33665C39.1039 3.65862 38.6873 3.8196 38.1996 3.8196ZM45.6204 16.1562C44.8155 16.1562 44.0839 15.9479 43.4258 15.5312C42.7676 15.1146 42.2421 14.4896 41.8491 13.6562C41.4561 12.8229 41.2596 11.7884 41.2596 10.5526C41.2596 9.26941 41.4632 8.21354 41.8704 7.38494C42.2776 6.55634 42.8103 5.94318 43.4684 5.54545C44.1313 5.14773 44.8439 4.94886 45.6062 4.94886C46.1791 4.94886 46.6692 5.0483 47.0763 5.24716C47.4835 5.44129 47.8197 5.69223 48.0849 6C48.35 6.30777 48.5513 6.62737 48.6886 6.95881H48.7596V1.45455H52.2326V16H48.7951V14.2315H48.6886C48.5418 14.5677 48.3335 14.8826 48.0636 15.1761C47.7937 15.4697 47.4551 15.7064 47.0479 15.8864C46.6455 16.0663 46.1696 16.1562 45.6204 16.1562ZM46.8278 13.4503C47.2492 13.4503 47.609 13.3319 47.9073 13.0952C48.2056 12.8537 48.4353 12.5152 48.5962 12.0795C48.7572 11.6439 48.8377 11.1326 48.8377 10.5455C48.8377 9.94886 48.7572 9.43513 48.5962 9.00426C48.44 8.57339 48.2103 8.24195 47.9073 8.00994C47.609 7.77794 47.2492 7.66193 46.8278 7.66193C46.3969 7.66193 46.0323 7.7803 45.734 8.01705C45.4357 8.25379 45.2085 8.58759 45.0522 9.01847C44.9007 9.44934 44.8249 9.95833 44.8249 10.5455C44.8249 11.1326 44.9031 11.6439 45.0593 12.0795C45.2156 12.5152 45.4405 12.8537 45.734 13.0952C46.0323 13.3319 46.3969 13.4503 46.8278 13.4503ZM58.7273 16V1.45455H66.8452V2.27841H59.6151V8.30824H66.1705V9.1321H59.6151V16H58.7273ZM68.4688 1.45455H69.5199L74.1009 8.47159H74.2003L78.7812 1.45455H79.8324L74.598 9.40199V16H73.7031V9.40199L68.4688 1.45455ZM92.9492 8.72727C92.9492 10.2282 92.6888 11.5398 92.168 12.6619C91.6471 13.7794 90.9227 14.6482 89.9947 15.2685C89.0714 15.8887 88.006 16.1989 86.7987 16.1989C85.5865 16.1989 84.5165 15.8887 83.5884 15.2685C82.6651 14.6435 81.9431 13.7723 81.4222 12.6548C80.9014 11.5327 80.641 10.2235 80.641 8.72727C80.641 7.22633 80.9014 5.91714 81.4222 4.79972C81.9478 3.68229 82.6722 2.81345 83.5955 2.19318C84.5188 1.56818 85.5865 1.25568 86.7987 1.25568C88.006 1.25568 89.0714 1.56581 89.9947 2.18608C90.9227 2.80634 91.6471 3.67756 92.168 4.79972C92.6888 5.91714 92.9492 7.22633 92.9492 8.72727ZM92.0827 8.72727C92.0827 7.37784 91.8555 6.20833 91.4009 5.21875C90.9511 4.22917 90.3285 3.46449 89.533 2.92472C88.7376 2.38021 87.8261 2.10795 86.7987 2.10795C85.7712 2.10795 84.8597 2.37784 84.0643 2.91761C83.2688 3.45265 82.6438 4.21733 82.1893 5.21165C81.7395 6.20123 81.5146 7.37311 81.5146 8.72727C81.5146 10.0672 81.7371 11.2344 82.1822 12.2287C82.632 13.2183 83.2546 13.9853 84.0501 14.5298C84.8455 15.0743 85.7617 15.3466 86.7987 15.3466C87.8261 15.3466 88.7376 15.0767 89.533 14.5369C90.3285 13.9924 90.9511 13.2254 91.4009 12.2358C91.8555 11.2462 92.0827 10.0767 92.0827 8.72727ZM107.034 1.45455V16H106.167L96.8917 3.06676H96.8065V16H95.9187V1.45455H96.7923L106.068 14.402H106.153V1.45455H107.034Z" fill="white"/>
</svg>
