<svg xmlns="http://www.w3.org/2000/svg" width="655" height="222" fill="none" viewBox="0 0 655 222">
  <path fill="#fff" d="M83.649 113v-10.182h6.383v1.323h-4.847v3.102H89.7v1.317h-4.514v3.118h4.907V113H83.65zm9.254-10.182l2.436 3.982h.08l2.436-3.982h1.78l-3.172 5.091L99.655 113h-1.79l-2.446-3.928h-.08L92.893 113h-1.79l3.247-5.091-3.226-5.091h1.78zM100.91 113v-10.182h3.629c.792 0 1.448.144 1.969.433.52.288.909.682 1.168 1.183.259.497.388 1.057.388 1.68 0 .627-.131 1.19-.393 1.691a2.85 2.85 0 01-1.173 1.183c-.521.288-1.175.432-1.964.432h-2.496v-1.302h2.357c.5 0 .906-.086 1.218-.259.311-.175.54-.414.686-.716.146-.301.219-.644.219-1.029a2.3 2.3 0 00-.219-1.024 1.57 1.57 0 00-.691-.701c-.312-.169-.723-.253-1.233-.253h-1.929V113h-1.536zm8.705 0v-10.182h1.536v8.86h4.614V113h-6.15zm16.1-5.091c0 1.087-.199 2.022-.597 2.804-.397.779-.942 1.379-1.635 1.8-.69.417-1.473.626-2.352.626-.881 0-1.669-.209-2.361-.626-.69-.421-1.233-1.023-1.631-1.805-.398-.782-.597-1.715-.597-2.799 0-1.087.199-2.02.597-2.799.398-.782.941-1.382 1.631-1.8.692-.421 1.48-.631 2.361-.631.879 0 1.662.21 2.352.631.693.418 1.238 1.018 1.635 1.8.398.779.597 1.712.597 2.799zm-1.521 0c0-.829-.134-1.526-.403-2.093-.265-.57-.63-1.001-1.094-1.293a2.838 2.838 0 00-1.566-.442c-.586 0-1.11.147-1.571.442-.46.292-.825.723-1.094 1.293-.265.567-.397 1.264-.397 2.093s.132 1.528.397 2.098c.269.567.634.998 1.094 1.293.461.291.985.437 1.571.437.584 0 1.106-.146 1.566-.437.464-.295.829-.726 1.094-1.293.269-.57.403-1.269.403-2.098zm3.186 5.091v-10.182h3.63c.788 0 1.443.136 1.963.408.524.272.915.648 1.174 1.128.258.478.387 1.03.387 1.656 0 .623-.13 1.172-.392 1.646-.259.47-.65.836-1.174 1.098-.52.262-1.175.393-1.963.393h-2.75v-1.322h2.61c.498 0 .902-.072 1.214-.214.314-.143.545-.35.691-.622.145-.271.218-.598.218-.979 0-.385-.074-.718-.223-.999a1.448 1.448 0 00-.691-.647c-.312-.152-.721-.228-1.228-.228h-1.929V113h-1.537zm5.027-4.594l2.515 4.594h-1.75l-2.466-4.594h1.701zm3.747 4.594v-10.182h6.383v1.323h-4.847v3.102h4.514v1.317h-4.514v3.118h4.907V113h-6.443zM312.246 106.129h-1.551a2.388 2.388 0 00-.333-.875 2.434 2.434 0 00-.597-.641 2.565 2.565 0 00-.79-.398 3.101 3.101 0 00-.92-.134c-.587 0-1.112.147-1.576.442-.461.295-.825.728-1.094 1.298-.265.57-.397 1.266-.397 2.088 0 .829.132 1.528.397 2.098.269.57.635 1.001 1.099 1.293.464.291.986.437 1.566.437.322 0 .627-.043.915-.129.292-.09.555-.22.79-.393a2.393 2.393 0 00.94-1.496l1.551.005c-.083.5-.243.961-.482 1.382a3.823 3.823 0 01-.91 1.084 4.135 4.135 0 01-1.263.701 4.689 4.689 0 01-1.551.248c-.881 0-1.667-.209-2.356-.626-.69-.421-1.233-1.023-1.631-1.805-.394-.782-.592-1.715-.592-2.799 0-1.087.199-2.02.597-2.799.398-.782.941-1.382 1.631-1.8.689-.421 1.473-.631 2.351-.631.54 0 1.044.078 1.512.234.47.152.893.377 1.267.676.375.295.685.656.93 1.084.245.424.411.909.497 1.456zm1.588 6.871v-10.182h3.63c.789 0 1.443.136 1.963.408.524.272.915.648 1.174 1.128.258.478.388 1.03.388 1.656 0 .623-.131 1.172-.393 1.646-.259.47-.65.836-1.174 1.098-.52.262-1.174.393-1.963.393h-2.75v-1.322h2.611c.497 0 .901-.072 1.213-.214.314-.143.545-.35.691-.622.145-.271.218-.598.218-.979 0-.385-.074-.718-.223-.999a1.448 1.448 0 00-.691-.647c-.312-.152-.721-.228-1.228-.228h-1.929V113h-1.537zm5.027-4.594l2.515 4.594h-1.75l-2.466-4.594h1.701zm3.747 4.594v-10.182h6.383v1.323h-4.847v3.102h4.514v1.317h-4.514v3.118h4.907V113h-6.443zm9.045 0h-1.63l3.664-10.182h1.775L339.126 113h-1.631l-2.878-8.332h-.08L331.653 113zm.274-3.987h5.29v1.292h-5.29v-1.292zm6.714-4.872v-1.323h7.88v1.323h-3.177V113h-1.531v-8.859h-3.172zm9.371 8.859v-10.182h6.384v1.323h-4.848v3.102h4.515v1.317h-4.515v3.118h4.907V113h-6.443zM516.001 102.818V113h-1.537v-10.182h1.537zm1.987 0h1.864l3.242 7.915h.119l3.241-7.915h1.865V113h-1.462v-7.368h-.094l-3.003 7.353h-1.213l-3.003-7.358h-.095V113h-1.461v-10.182zM530.302 113v-10.182h3.629c.793 0 1.449.144 1.969.433.521.288.91.682 1.169 1.183.258.497.387 1.057.387 1.68 0 .627-.131 1.19-.392 1.691-.259.497-.65.891-1.174 1.183-.52.288-1.175.432-1.964.432h-2.495v-1.302h2.356c.501 0 .907-.086 1.218-.259a1.61 1.61 0 00.686-.716c.146-.301.219-.644.219-1.029a2.3 2.3 0 00-.219-1.024 1.565 1.565 0 00-.691-.701c-.311-.169-.722-.253-1.233-.253h-1.929V113h-1.536zm8.705 0v-10.182h3.63c.788 0 1.443.136 1.963.408.524.272.915.648 1.174 1.128.258.478.387 1.03.387 1.656 0 .623-.131 1.172-.392 1.646-.259.47-.65.836-1.174 1.098-.52.262-1.175.393-1.963.393h-2.75v-1.322h2.61c.498 0 .902-.072 1.213-.214.315-.143.546-.35.691-.622.146-.271.219-.598.219-.979 0-.385-.074-.718-.223-.999a1.446 1.446 0 00-.692-.647c-.311-.152-.72-.228-1.228-.228h-1.928V113h-1.537zm5.027-4.594l2.515 4.594h-1.75l-2.466-4.594h1.701zm12.591-.497c0 1.087-.199 2.022-.596 2.804-.398.779-.943 1.379-1.636 1.8-.689.417-1.473.626-2.352.626-.881 0-1.668-.209-2.361-.626-.69-.421-1.233-1.023-1.631-1.805-.398-.782-.596-1.715-.596-2.799 0-1.087.198-2.02.596-2.799.398-.782.941-1.382 1.631-1.8.693-.421 1.48-.631 2.361-.631.879 0 1.663.21 2.352.631.693.418 1.238 1.018 1.636 1.8.397.779.596 1.712.596 2.799zm-1.521 0c0-.829-.134-1.526-.403-2.093-.265-.57-.63-1.001-1.094-1.293a2.838 2.838 0 00-1.566-.442c-.586 0-1.11.147-1.571.442-.46.292-.825.723-1.093 1.293-.266.567-.398 1.264-.398 2.093s.132 1.528.398 2.098c.268.567.633.998 1.093 1.293.461.291.985.437 1.571.437.584 0 1.106-.146 1.566-.437.464-.295.829-.726 1.094-1.293.269-.57.403-1.269.403-2.098zm3.571-5.091l2.833 8.293h.115l2.833-8.293h1.661L562.453 113h-1.775l-3.664-10.182h1.661zM567.337 113v-10.182h6.384v1.323h-4.847v3.102h4.514v1.317h-4.514v3.118h4.907V113h-6.444z"/>
  <path stroke="#fff" stroke-dasharray="2 8" stroke-linejoin="round" stroke-width="2" d="M212.946 72C196.801 32.685 158.134 5 113 5 71.799 5 35.986 28.072 17.776 62M446.054 72C459.88 38.332 490.223 13.193 527 6.666M428.891 154c-16.145 39.315-54.812 67-99.945 67-45.134 0-83.801-27.685-99.946-67"/>
  <path fill="url(#paint0_linear_1575_3)" fill-rule="evenodd" d="M436.242 113c0-59.094-47.906-107-107-107V4c60.199 0 109 48.801 109 109 0 29.481 11.921 56.175 31.208 75.529l-1.416 1.412c-19.646-19.714-31.792-46.91-31.792-76.941zm-177.21-80.746c-22.543 19.619-36.79 48.518-36.79 80.746 0 60.199-48.801 109-109 109-52.592 0-96.482-37.245-106.737-86.797-.677-3.271-1.21-7.966-1.505-13.146l1.997-.114c.293 5.132.818 9.718 1.467 12.854C18.53 183.439 61.618 220 113.242 220c59.094 0 107-47.906 107-107 0-32.83 14.516-62.272 37.477-82.254l1.313 1.508zM553.169 6.29c55.392 4.056 99.073 50.283 99.073 106.711 0 59.094-47.906 107-107 107v2c60.199 0 109-48.801 109-109 0-57.484-44.497-104.574-100.927-108.706l-.146 1.995z" clip-rule="evenodd"/>
  <circle cx="5.5" cy="117.5" r="4.5" stroke="#5D5DFF" stroke-width="2"/>
  <circle cx="548.5" cy="5.5" r="4.5" stroke="#5DB5FF" stroke-width="2"/>
  <path fill="#5D84FF" fill-rule="evenodd" d="M258 30h-18v2h18v18h2V30h-2z" clip-rule="evenodd"/>
  <path fill="#5DA6FF" fill-rule="evenodd" d="M470 188v-18h-2v18h-18v2h20v-2z" clip-rule="evenodd"/>
  <defs>
    <linearGradient id="paint0_linear_1575_3" x1="654" x2="5" y1="101.5" y2="101.5" gradientUnits="userSpaceOnUse">
      <stop stop-color="#5DC5FF"/>
      <stop offset="1" stop-color="#5D5DFF"/>
    </linearGradient>
  </defs>
</svg>
