<svg width="655" height="222" viewBox="0 0 655 222" fill="none" xmlns="http://www.w3.org/2000/svg">
<path d="M79.2622 113H85.7053V111.678H80.7984V108.56H85.3126V107.243H80.7984V104.141H85.6457V102.818H79.2622V113ZM88.5166 102.818H86.7368L89.9633 107.909L86.7169 113H88.5067L90.9527 109.072H91.0322L93.4782 113H95.268L92.0763 107.909L95.2481 102.818H93.4683L91.0322 106.8H90.9527L88.5166 102.818ZM96.5219 113H98.0581V109.42H100.146C102.508 109.42 103.676 107.994 103.676 106.114C103.676 104.24 102.518 102.818 100.151 102.818H96.5219V113ZM98.0581 108.118V104.136H99.9871C101.508 104.136 102.13 104.961 102.13 106.114C102.13 107.268 101.508 108.118 100.007 108.118H98.0581ZM105.227 113H111.377V111.678H106.763V102.818H105.227V113ZM121.327 107.909C121.327 104.653 119.378 102.679 116.744 102.679C114.099 102.679 112.155 104.653 112.155 107.909C112.155 111.161 114.099 113.139 116.744 113.139C119.378 113.139 121.327 111.165 121.327 107.909ZM119.806 107.909C119.806 110.39 118.494 111.737 116.744 111.737C114.989 111.737 113.681 110.39 113.681 107.909C113.681 105.428 114.989 104.081 116.744 104.081C118.494 104.081 119.806 105.428 119.806 107.909ZM122.993 113H124.529V109.147H126.617C126.652 109.147 126.682 109.147 126.716 109.147L128.785 113H130.535L128.277 108.879C129.525 108.416 130.147 107.377 130.147 106.01C130.147 104.136 128.983 102.818 126.622 102.818H122.993V113ZM124.529 107.825V104.136H126.458C127.974 104.136 128.601 104.857 128.601 106.01C128.601 107.158 127.974 107.825 126.478 107.825H124.529ZM131.766 113H138.209V111.678H133.302V108.56H137.816V107.243H133.302V104.141H138.15V102.818H131.766V113ZM139.952 113H141.488V109.147H143.576C143.611 109.147 143.641 109.147 143.675 109.147L145.744 113H147.494L145.236 108.879C146.484 108.416 147.106 107.377 147.106 106.01C147.106 104.136 145.942 102.818 143.581 102.818H139.952V113ZM141.488 107.825V104.136H143.417C144.933 104.136 145.56 104.857 145.56 106.01C145.56 107.158 144.933 107.825 143.437 107.825H141.488Z" fill="white"/>
<path d="M298.026 106.129C297.678 103.952 295.973 102.679 293.82 102.679C291.186 102.679 289.242 104.653 289.242 107.909C289.242 111.165 291.176 113.139 293.82 113.139C296.058 113.139 297.693 111.737 298.026 109.724L296.475 109.719C296.212 111.021 295.118 111.737 293.83 111.737C292.085 111.737 290.768 110.4 290.768 107.909C290.768 105.438 292.08 104.081 293.835 104.081C295.133 104.081 296.222 104.812 296.475 106.129H298.026ZM308.459 107.909C308.459 104.653 306.51 102.679 303.875 102.679C301.23 102.679 299.287 104.653 299.287 107.909C299.287 111.161 301.23 113.139 303.875 113.139C306.51 113.139 308.459 111.165 308.459 107.909ZM306.938 107.909C306.938 110.39 305.625 111.737 303.875 111.737C302.12 111.737 300.813 110.39 300.813 107.909C300.813 105.428 302.12 104.081 303.875 104.081C305.625 104.081 306.938 105.428 306.938 107.909ZM318.343 102.818H316.821V110.295H316.727L311.546 102.818H310.124V113H311.661V105.533H311.755L316.931 113H318.343V102.818ZM328.79 106.129C328.442 103.952 326.737 102.679 324.584 102.679C321.949 102.679 320.005 104.653 320.005 107.909C320.005 111.165 321.939 113.139 324.584 113.139C326.821 113.139 328.457 111.737 328.79 109.724L327.239 109.719C326.975 111.021 325.882 111.737 324.594 111.737C322.849 111.737 321.532 110.4 321.532 107.909C321.532 105.438 322.844 104.081 324.599 104.081C325.897 104.081 326.985 104.812 327.239 106.129H328.79ZM330.378 113H336.822V111.678H331.915V108.56H336.429V107.243H331.915V104.141H336.762V102.818H330.378V113ZM339.454 102.818H337.793L341.457 113H343.232L346.896 102.818H345.236L342.402 111.111H342.288L339.454 102.818ZM356.455 107.909C356.455 104.653 354.506 102.679 351.871 102.679C349.227 102.679 347.283 104.653 347.283 107.909C347.283 111.161 349.227 113.139 351.871 113.139C354.506 113.139 356.455 111.165 356.455 107.909ZM354.934 107.909C354.934 110.39 353.621 111.737 351.871 111.737C350.116 111.737 348.809 110.39 348.809 107.909C348.809 105.428 350.116 104.081 351.871 104.081C353.621 104.081 354.934 105.428 354.934 107.909ZM359.657 102.818H358.121V113H359.657V102.818ZM361.644 113H363.18V109.147H365.268C365.303 109.147 365.333 109.147 365.368 109.147L367.436 113H369.186L366.929 108.879C368.177 108.416 368.798 107.377 368.798 106.01C368.798 104.136 367.635 102.818 365.273 102.818H361.644V113ZM363.18 107.825V104.136H365.109C366.626 104.136 367.252 104.857 367.252 106.01C367.252 107.158 366.626 107.825 365.129 107.825H363.18Z" fill="white"/>
<path d="M507.118 113L508.053 110.305H512.03L512.96 113H514.591L510.927 102.818H509.152L505.488 113H507.118ZM508.5 109.013L510.002 104.668H510.081L511.583 109.013H508.5ZM515.811 102.818V113H517.273V105.627H517.367L520.37 112.985H521.583L524.586 105.632H524.68V113H526.142V102.818H524.278L521.036 110.733H520.917L517.675 102.818H515.811ZM528.125 113H534.569V111.678H529.662V108.56H534.176V107.243H529.662V104.141H534.509V102.818H528.125V113ZM530.701 101.799H531.889L533.43 99.5071H531.864L530.701 101.799ZM536.311 113H542.461V111.678H537.847V102.818H536.311V113ZM545.5 102.818H543.963V113H545.5V102.818ZM556.331 107.909C556.331 104.653 554.382 102.679 551.747 102.679C549.103 102.679 547.159 104.653 547.159 107.909C547.159 111.161 549.103 113.139 551.747 113.139C554.382 113.139 556.331 111.165 556.331 107.909ZM554.81 107.909C554.81 110.39 553.497 111.737 551.747 111.737C549.992 111.737 548.685 110.39 548.685 107.909C548.685 105.428 549.992 104.081 551.747 104.081C553.497 104.081 554.81 105.428 554.81 107.909ZM557.997 113H559.533V109.147H561.621C561.656 109.147 561.685 109.147 561.72 109.147L563.788 113H565.538L563.281 108.879C564.529 108.416 565.151 107.377 565.151 106.01C565.151 104.136 563.987 102.818 561.626 102.818H557.997V113ZM559.533 107.825V104.136H561.462C562.978 104.136 563.604 104.857 563.604 106.01C563.604 107.158 562.978 107.825 561.482 107.825H559.533ZM566.77 113H573.213V111.678H568.306V108.56H572.82V107.243H568.306V104.141H573.153V102.818H566.77V113ZM574.956 113H576.492V109.147H578.58C578.615 109.147 578.644 109.147 578.679 109.147L580.747 113H582.497L580.24 108.879C581.488 108.416 582.11 107.377 582.11 106.01C582.11 104.136 580.946 102.818 578.585 102.818H574.956V113ZM576.492 107.825V104.136H578.421C579.937 104.136 580.563 104.857 580.563 106.01C580.563 107.158 579.937 107.825 578.441 107.825H576.492Z" fill="white"/>
<path d="M212.946 72C196.801 32.6854 158.134 5 113 5C71.7987 5 35.9859 28.0715 17.7764 62" stroke="white" stroke-width="2" stroke-linejoin="round" stroke-dasharray="2 8"/>
<path d="M446.054 72C459.88 38.3322 490.223 13.1929 527 6.66589" stroke="white" stroke-width="2" stroke-linejoin="round" stroke-dasharray="2 8"/>
<path d="M428.891 154C412.746 193.315 374.079 221 328.946 221C283.812 221 245.145 193.315 229 154" stroke="white" stroke-width="2" stroke-linejoin="round" stroke-dasharray="2 8"/>
<path fill-rule="evenodd" clip-rule="evenodd" d="M436.242 113C436.242 53.9055 388.336 6 329.242 6V4C389.441 4 438.242 52.801 438.242 113C438.242 142.481 450.163 169.175 469.45 188.529L468.034 189.941C448.388 170.227 436.242 143.031 436.242 113ZM259.032 32.2543C236.489 51.8726 222.242 80.772 222.242 113C222.242 173.199 173.441 222 113.242 222C60.6503 222 16.7599 184.755 6.50512 135.203C5.82819 131.932 5.29571 127.237 5 122.057L6.99675 121.943C7.28973 127.075 7.81464 131.661 8.46362 134.797C18.5301 183.439 61.6176 220 113.242 220C172.336 220 220.242 172.094 220.242 113C220.242 80.1692 234.758 50.7276 257.719 30.7457L259.032 32.2543ZM553.169 6.28914C608.561 10.345 652.242 56.5718 652.242 113C652.242 172.094 604.336 220 545.242 220V222C605.441 222 654.242 173.199 654.242 113C654.242 55.5162 609.745 8.42626 553.315 4.29448L553.169 6.28914Z" fill="url(#paint0_linear)"/>
<circle cx="5.5" cy="117.5" r="4.5" stroke="#5D5DFF" stroke-width="2"/>
<circle cx="548.5" cy="5.5" r="4.5" stroke="#5DB5FF" stroke-width="2"/>
<path fill-rule="evenodd" clip-rule="evenodd" d="M258 30H240V32H258V50H260V32V30H258Z" fill="#5D84FF"/>
<path fill-rule="evenodd" clip-rule="evenodd" d="M470 188L470 170L468 170L468 188L450 188L450 190L468 190L470 190L470 188Z" fill="#5DA6FF"/>
<defs>
<linearGradient id="paint0_linear" x1="654" y1="101.5" x2="5" y2="101.5" gradientUnits="userSpaceOnUse">
<stop stop-color="#5DC5FF"/>
<stop offset="1" stop-color="#5D5DFF"/>
</linearGradient>
</defs>
</svg>
