<svg width="41" height="41" viewBox="0 0 41 41" fill="none" xmlns="http://www.w3.org/2000/svg">
<path fill-rule="evenodd" clip-rule="evenodd" d="M20.5 1.79217e-06C9.17826 2.78194e-06 -2.78194e-06 9.17826 -1.79217e-06 20.5C-8.0238e-07 31.8218 9.17826 41 20.5 41C31.8218 41 41 31.8218 41 20.5C41 9.17826 31.8218 8.0238e-07 20.5 1.79217e-06ZM21.4629 25.5627C20.8624 26.1632 20.8624 27.1367 21.4629 27.7371C22.0633 28.3375 23.0367 28.3375 23.6371 27.7371L29.7872 21.5871C30.0755 21.2989 30.2375 20.9077 30.2375 20.5C30.2375 20.0923 30.0755 19.7011 29.7872 19.4129L23.6371 13.2629C23.0367 12.6624 22.0633 12.6624 21.4629 13.2629C20.8624 13.8633 20.8624 14.8367 21.4629 15.4371L24.9881 18.9625L12.3 18.9625C11.4509 18.9625 10.7625 19.6509 10.7625 20.5C10.7625 21.3491 11.4509 22.0375 12.3 22.0375L24.9881 22.0375L21.4629 25.5627Z" fill="white"/>
</svg>
