<?xml version="1.0" encoding="utf-8"?>
<!-- Generator: Adobe Illustrator 21.1.0, SVG Export Plug-In . SVG Version: 6.00 Build 0)  -->
<svg version="1.1" id="Calque_1" xmlns="http://www.w3.org/2000/svg" xmlns:xlink="http://www.w3.org/1999/xlink" x="0px" y="0px"
	 viewBox="0 0 841.9 595.3" style="enable-background:new 0 0 841.9 595.3;" xml:space="preserve">
<path d="M124.5,348.5c-2.7-5.1-9.9-9.4-17.2-9.4C91.1,339,80,351.8,80,368.6c0,16.8,11.2,29.5,27.4,29.5c7.2,0,14.5-4.2,17.2-9.3
	v7.9h17.9v-56.2h-17.9V348.5z M111.1,382.9c-8,0-13.4-6.5-13.4-14.4c0-7.7,5.4-14.3,13.4-14.3c8.1,0,13.4,6.7,13.4,14.3
	C124.5,376.4,119.2,382.9,111.1,382.9z M267.7,316.7h10.8V185.5h-10.8V316.7z M231.7,363.5c-9.5-3.1-14.4-3.8-14.4-7.9
	c0-3.4,3-5,6.6-5c4.9,0,7.4,2.7,7.4,7.3H249c0-10.7-7.9-19-24.3-19c-15.2,0-24.9,5.5-24.9,17.2c0,10.8,8.1,13.5,17.4,16.4
	c10.6,3.5,15,4.1,15,8.4c0,3.7-3,5.3-7.3,5.3c-5.3,0-9-2.3-9-8.3h-17.5c0,12.9,9.9,20.3,25.9,20.3c14,0,25.4-4.8,25.4-18.1
	C249.8,369.1,241.7,366.5,231.7,363.5z M178.5,373.8v-20.1h12.8v-13.3h-12.8v-16.7h-17.7v16.7h-8.9v13.3h8.9v24
	c0,18.8,11.6,19.8,20,19.8c5.2,0,9.2-0.5,11.9-0.9V383c-1.6,0.2-4.2,0.3-6.4,0.3C181.8,383.4,178.5,382.1,178.5,373.8z M436.6,211.3
	h-10.8v79.5h10.8V211.3z M468.3,237.2h-10.8V265h10.8V237.2z M299.4,342.6h10.8v-183h-10.8V342.6z M246.9,211.3h-10.8v79.5h10.8
	V211.3z M215.3,237.2h-10.8V265h10.8V237.2z M444.8,368.4c-9.9-2.7-15.6-3.6-15.6-9.8c0-5.5,4.8-8.6,11.5-8.6
	c7.8,0,12.6,3.8,12.6,11h7.5c0-10.6-8.6-17.1-19.9-17.1c-11,0-19.1,5.1-19.1,14.7c0,9.7,7.1,11.9,15.6,14c9.9,2.8,17,3.6,17,10.4
	c0,5.7-4.7,8.8-12.4,8.8c-8.2,0-14.5-3.3-14.5-12.5h-7.5c0,12.9,9.9,18.8,21.6,18.8c12,0,20-5.3,20-15.2
	C461.6,372.6,453.3,370.5,444.8,368.4z M647.6,396.7h7.6V345h-7.6V396.7z M330.9,368.5h10.8V133.7h-10.8V368.5z M696.9,343.8
	c-16.3,0-27.1,12.4-27.1,27.1c0,14.6,10.7,27.1,27.1,27.1c16.6,0,27.3-12.5,27.3-27.1C724.2,356.2,713.5,343.8,696.9,343.8z
	 M696.9,391c-11.8,0-19.5-9.2-19.5-20.1c0-11,7.7-20.2,19.5-20.2c12,0,19.7,9.2,19.7,20.2C716.6,381.7,708.9,391,696.9,391z
	 M759.1,368.4c-9.9-2.7-15.6-3.6-15.6-9.8c0-5.5,4.8-8.6,11.5-8.6c7.8,0,12.6,3.8,12.6,11h7.5c0-10.6-8.6-17.1-20-17.1
	c-11,0-19.1,5.1-19.1,14.7c0,9.7,7.1,11.9,15.6,14c9.9,2.8,17,3.6,17,10.4c0,5.7-4.7,8.8-12.4,8.8c-8.2,0-14.5-3.3-14.5-12.5h-7.5
	c0,12.9,9.9,18.8,21.6,18.8c12,0,20-5.3,20-15.2C775.9,372.6,767.6,370.5,759.1,368.4z M620.6,356c-3.4-7.3-11.1-12.1-20.1-12.1
	c-16,0-26.7,12.4-26.7,27.1c0,14.6,10.7,27.1,26.7,27.1c9,0,16.7-4.9,20.1-12.1v10.8h7.6V315h-7.6V356z M600.9,391
	c-11.8,0-19.5-9.2-19.5-20.1c0-11,7.7-20.2,19.5-20.2c12,0,19.7,9.2,19.7,20.2C620.6,381.7,612.9,391,600.9,391z M651.3,317.7
	c-3.8,0-6.9,3.1-6.9,7.1c0,3.8,3,6.9,6.9,6.9c4,0,7.1-3,7.1-6.9C658.4,320.8,655.3,317.7,651.3,317.7z M362.6,342.6h10.8v-183h-10.8
	V342.6z M551.6,371.5c0,9.6-5.6,19.6-17,19.6c-10.7,0-14.9-7.8-14.9-18V345h-7.7v30.3c0,7.2,1.4,12.2,4.5,16.1
	c3.3,4.1,8.6,6.5,15.5,6.5c9.8,0,16.7-5.5,19.6-12.5v11.2h7.6V345h-7.6V371.5z M394.2,316.7H405V185.5h-10.8V316.7z M485.5,377.9
	v-26.4h14.9V345h-14.9v-19.1h-7.7V345h-10.4v6.5h10.4v27.9c0,16.6,9,18,15.8,18c3.1,0,6.8-0.4,8.8-0.7v-6.9
	c-1.9,0.3-5.1,0.6-7.2,0.6C489.6,390.4,485.5,389,485.5,377.9z"/>
</svg>
