<svg id="Calque_1" data-name="Calque 1" xmlns="http://www.w3.org/2000/svg" viewBox="0 0 760.12 246.02"><defs><style>.cls-1{fill:#111;}.cls-2{fill:#ce1618;}</style></defs><path class="cls-1" d="M354.56,162.57,328.32,250.8H292.94L350.36,57.57h35.39l-.3,88.72,26.39-88.72h35.38L389.8,250.8H354.26Z" transform="translate(-28.64 -31.67)"/><path class="cls-1" d="M493.55,166.49H482.9l9.15-30.8h51L509,250.17H468.66l3.6-12.24a54.58,54.58,0,0,1-13.64,9.65,42.28,42.28,0,0,1-17.85,4.92A36.17,36.17,0,0,1,423.16,249a16,16,0,0,1-9.6-12.81q-1.28-8.83,4.43-26.51L454.12,88.11q2.4-7.83,9.59-15.4A51.88,51.88,0,0,1,481.56,61a53,53,0,0,1,19.79-4.16h25.34a38.26,38.26,0,0,1,16,4.16,21.24,21.24,0,0,1,10.79,11.74,26.92,26.92,0,0,1,.6,15.4l-3.59,12H513.19l3.75-12.37a26,26,0,0,0,1.35-8,8.62,8.62,0,0,0-1.35-4.92q-1.05-1.9-6.75-2t-8.09,2a18.76,18.76,0,0,0-4.35,4.92,31.3,31.3,0,0,0-2.4,5.43l-38.08,128.1a31.15,31.15,0,0,0-1.5,8,8.67,8.67,0,0,0,1.35,4.92q1.2,1.89,6.74,2c3.8,0,6.5-.68,8.1-2a19.09,19.09,0,0,0,4.35-4.92,30.73,30.73,0,0,0,3.3-8Z" transform="translate(-28.64 -31.67)"/><path class="cls-1" d="M677.67,57.69l-8.4,27.89h-30l-49,165.22H549.93L599,85.58H569.27l8.39-27.89Z" transform="translate(-28.64 -31.67)"/><path class="cls-1" d="M705.4,171.54l52.48-114h30.89L699.71,250.8H663.87L689.66,57.57h30.89Z" transform="translate(-28.64 -31.67)"/><path class="cls-2" d="M275.72,182.62c-.81,3.38-1.78,6.83-2.9,10.12a123,123,0,0,1-53.17,66.6,125.34,125.34,0,0,1-65.79,18.34,24.41,24.41,0,0,1-3.07-.13c-10.72-12.91-17.71-34.44-19.46-46.72-.63-4.38.63-8.63,4.78-10.29,34.77-13.92,70.95-35.39,98.21-58.75,4.15-3.56,8.09-7.2,11.79-10.78,11.77-11.6,21.13-23.41,26.84-34.85A121.45,121.45,0,0,1,275.72,182.62Z" transform="translate(-28.64 -31.67)"/><path class="cls-2" d="M124.1,274.18A125.36,125.36,0,0,1,60.43,236.5c-1.91-2.13-3.75-4.33-5.5-6.52-2.67-3.44-5.24-7-7.59-10.75A121.45,121.45,0,0,1,45.4,92.93c13-2.62,34.83,1,45.64,5.34,4.6,1.84,8.12,5.37,7.66,10.24-3.33,34.85-1.65,73.52,4.89,106.94q1.45,7.7,3.39,15C111.3,247.39,117,262.49,124.1,274.18Z" transform="translate(-28.64 -31.67)"/><path class="cls-1" d="M123.21,106.46c29.46,12.12,62,29.53,88.94,46.92h0c-26,18.05-58.43,35.79-87.47,48.48A566.34,566.34,0,0,1,123.21,106.46Z" transform="translate(-28.64 -31.67)"/><path class="cls-2" d="M263.05,94.18h0l-2.32-4c-28.66-45.8-82.86-66.58-133.34-55.67a101.47,101.47,0,0,0-10.7,2.86,125.15,125.15,0,0,0-56.6,36.28c12.76-.73,27.56,1.06,43.45,4.84,5.08,1.2,10.21,2.63,15.49,4.22,33.58,10.26,70,28,100.36,48.45a14.54,14.54,0,0,0,18.23-1.86c12.34-10.71,23-24.6,25.43-35.13Z" transform="translate(-28.64 -31.67)"/></svg>