<svg width="181" height="36" viewBox="0 0 181 36" fill="none" xmlns="http://www.w3.org/2000/svg">
<path d="M55.6841 15.3913H59.2643L61.7205 21.9316L64.2601 15.3913H67.3823L69.8591 21.9316L72.3778 15.3913H75.6665L71.3163 25.7974H68.2771L65.7378 19.7377L63.1566 25.7974H60.1177L55.6841 15.3913Z" fill="black"/>
<path d="M85.3644 20.392C84.6983 20.7265 84.5941 20.7471 82.5959 21.0188C81.7008 21.1444 81.2637 21.2487 80.8891 21.3951C80.4104 21.5832 80.14 21.9801 80.14 22.4398C80.14 23.1503 80.8061 23.5891 81.9298 23.5891C82.9291 23.5891 84.0114 23.2128 84.74 22.6278C85.1771 22.2518 85.3644 21.7502 85.3644 20.8936V20.392ZM77.434 18.407C77.4962 17.2159 77.8919 16.5054 78.8078 15.7949C79.8068 15.001 81.2223 14.604 83.0538 14.604C84.9898 14.604 86.5924 15.0428 87.4877 15.7949C88.2786 16.4635 88.5284 17.2159 88.5284 18.8873V23.2128C88.5284 24.3414 88.6117 24.78 88.903 25.0935V25.407H85.7182L85.4478 24.1741C84.2612 25.3024 82.9082 25.8037 81.0142 25.8037C78.4121 25.8037 76.8096 24.5713 76.8096 22.586C76.8096 21.2696 77.4962 20.2668 78.6828 19.8068C79.5361 19.4726 79.5361 19.4726 82.8043 19.0966C84.9065 18.8458 85.3853 18.6369 85.3853 17.9891C85.3853 17.2577 84.5733 16.8189 83.1789 16.8189C82.3878 16.8189 81.7634 16.9651 81.3054 17.2577C80.9725 17.4666 80.8266 17.7174 80.7227 18.407H77.434Z" fill="black"/>
<path d="M98.081 25.4067H96.3117C94.48 25.4067 93.5849 25.135 93.0022 24.4036C92.544 23.8602 92.4817 23.4842 92.4817 21.6872V17.2992H90.8167V15.0007H92.4817V12.0128H95.6457V15.0007H98.081V17.2992H95.6457V21.4576C95.6457 22.6694 95.8744 22.9201 96.9987 22.9201H98.081V25.4067Z" fill="black"/>
<path d="M106.739 25.4067H104.97C103.138 25.4067 102.243 25.135 101.66 24.4036C101.202 23.8602 101.14 23.4842 101.14 21.6872V17.2992H99.4749V15.0007H101.14V12.0128H104.304V15.0007H106.739V17.2992H104.304V21.4576C104.304 22.6694 104.533 22.9201 105.657 22.9201H106.739V25.4067Z" fill="black"/>
<path d="M112.276 21.9801C112.422 23.1085 113.171 23.5891 114.857 23.5891C116.272 23.5891 117.105 23.1712 117.105 22.4817C117.105 22.1472 116.876 21.8755 116.459 21.7502C116.022 21.6456 115.065 21.5204 112.546 21.2487C111.193 21.0816 110.319 20.789 109.757 20.2665C109.195 19.7443 108.904 19.0966 108.904 18.3233C108.904 17.2577 109.507 16.1503 110.444 15.5653C111.443 14.9173 112.796 14.604 114.524 14.604C116.855 14.604 118.77 15.2727 119.603 16.3592C119.998 16.8814 120.123 17.2996 120.144 18.1144H116.709C116.626 17.6128 116.522 17.4039 116.189 17.1949C115.793 16.9442 115.107 16.798 114.336 16.798C113.067 16.798 112.359 17.1534 112.359 17.7802C112.359 18.4488 112.609 18.5322 117.042 18.971C119.29 19.18 120.498 20.2665 120.498 22.022C120.498 23.1085 119.936 24.1322 119.02 24.7593C117.958 25.4695 116.605 25.8037 114.711 25.8037C112.567 25.8037 111.027 25.3858 109.924 24.5085C109.174 23.9027 108.841 23.2128 108.737 21.9801H112.276Z" fill="#2BC47C"/>
<path d="M132.153 19.0129C131.903 17.6337 130.82 16.8189 129.259 16.8189C127.657 16.8189 126.616 17.5919 126.387 19.0129H132.153ZM135.525 22.21C134.38 24.6338 132.34 25.8037 129.197 25.8037C125.263 25.8037 122.869 23.7356 122.869 20.3086C122.869 16.798 125.283 14.604 129.155 14.604C133.131 14.604 135.629 16.8814 135.629 20.5176V20.9561H126.22C126.283 21.7712 126.408 22.1472 126.741 22.586C127.303 23.2756 128.135 23.61 129.28 23.61C130.571 23.61 131.237 23.2546 131.944 22.21H135.525Z" fill="#2BC47C"/>
<path d="M138.729 15.0009H141.892V16.7352C142.434 16.0459 142.725 15.7532 143.162 15.4606C143.87 14.98 144.869 14.7292 145.931 14.7292C147.575 14.7292 148.949 15.3145 149.615 16.3173C150.031 16.9235 150.135 17.425 150.135 18.9294V25.407H146.95V19.6187C146.95 18.7205 146.825 18.3026 146.493 17.9054C146.097 17.4666 145.41 17.2161 144.661 17.2161C143.6 17.2161 142.642 17.7174 142.225 18.4906C141.976 18.9294 141.892 19.4098 141.892 20.2039V25.407H138.729V15.0009Z" fill="#2BC47C"/>
<path d="M156.565 21.9801C156.711 23.1085 157.46 23.5891 159.147 23.5891C160.562 23.5891 161.395 23.1712 161.395 22.4817C161.395 22.1472 161.165 21.8755 160.749 21.7502C160.312 21.6456 159.355 21.5204 156.836 21.2487C155.483 21.0816 154.609 20.789 154.047 20.2665C153.485 19.7443 153.193 19.0966 153.193 18.3233C153.193 17.2577 153.797 16.1503 154.734 15.5653C155.733 14.9173 157.086 14.604 158.813 14.604C161.145 14.604 163.06 15.2727 163.892 16.3592C164.288 16.8814 164.413 17.2996 164.434 18.1144H160.999C160.916 17.6128 160.812 17.4039 160.479 17.1949C160.083 16.9442 159.396 16.798 158.626 16.798C157.357 16.798 156.649 17.1534 156.649 17.7802C156.649 18.4488 156.899 18.5322 161.332 18.971C163.58 19.18 164.788 20.2665 164.788 22.022C164.788 23.1085 164.225 24.1322 163.31 24.7593C162.248 25.4695 160.895 25.8037 159.001 25.8037C156.857 25.8037 155.317 25.3858 154.213 24.5085C153.464 23.9027 153.131 23.2128 153.027 21.9801H156.565Z" fill="#2BC47C"/>
<path d="M176.443 19.0129C176.193 17.6337 175.11 16.8189 173.549 16.8189C171.947 16.8189 170.906 17.5919 170.677 19.0129H176.443ZM179.815 22.21C178.67 24.6338 176.63 25.8037 173.487 25.8037C169.553 25.8037 167.159 23.7356 167.159 20.3086C167.159 16.798 169.573 14.604 173.445 14.604C177.421 14.604 179.919 16.8814 179.919 20.5176V20.9561H170.51C170.573 21.7712 170.698 22.1472 171.031 22.586C171.593 23.2756 172.425 23.61 173.57 23.61C174.861 23.61 175.527 23.2546 176.235 22.21H179.815Z" fill="#2BC47C"/>
<path d="M9.39934 7.75102V10.2832H3.5759V26.2574H9.41989V28.7251H0.93042V7.75102H9.39934Z" fill="#2BC47C"/>
<path d="M28.585 28.7251V26.1929H34.4084V10.2187H28.5645V7.75102H37.0539V28.7251H28.585Z" fill="#2BC47C"/>
<path d="M13.5463 1.99628L15.7352 0.867626L26.2749 21.5571L16.3876 18.7971L24.3663 34.4796L22.1765 35.6094L11.6328 14.8961L21.5404 17.6879L13.5463 1.99628Z" fill="#2BC47C"/>
</svg>
