<svg xmlns="http://www.w3.org/2000/svg" width="256" height="256" viewBox="0 0 100 100"><rect width="100" height="100" rx="20" fill="#5d5dff"></rect><path fill="#fff" d="M28.25 72.55L28.25 72.55L13.65 72.55L13.65 27.45L28.71 27.45Q35.34 27.45 40.09 30.15Q44.85 32.85 47.39 37.88Q49.93 42.91 49.93 49.93L49.93 49.93Q49.93 56.98 47.37 62.04Q44.80 67.11 39.96 69.83Q35.12 72.55 28.25 72.55ZM20.45 33.40L20.45 66.60L27.87 66.60Q33.02 66.60 36.44 64.65Q39.85 62.70 41.55 58.99Q43.24 55.28 43.24 49.93L43.24 49.93Q43.24 44.63 41.56 40.93Q39.87 37.23 36.55 35.31Q33.22 33.40 28.29 33.40L28.29 33.40L20.45 33.40ZM65.19 72.55L58.39 72.55L58.39 27.45L86.35 27.45L86.35 33.31L65.19 33.31L65.19 47.05L84.35 47.05L84.35 52.88L65.19 52.88L65.19 72.55Z"></path></svg>