<svg xmlns="http://www.w3.org/2000/svg" width="256" height="256" viewBox="0 0 100 100"><rect width="100" height="100" rx="20" fill="#7d6ee7"></rect><path fill="#fff" d="M29.08 71.82L29.08 71.82L14.29 71.82L14.29 28.18L29.38 28.18Q35.87 28.18 40.55 30.79Q45.23 33.40 47.74 38.28Q50.26 43.16 50.26 49.96L50.26 49.96Q50.26 56.78 47.73 61.68Q45.21 66.58 40.47 69.20Q35.72 71.82 29.08 71.82ZM22.19 35.02L22.19 64.98L28.69 64.98Q33.25 64.98 36.30 63.31Q39.35 61.63 40.88 58.30Q42.41 54.96 42.41 49.96L42.41 49.96Q42.41 44.95 40.88 41.64Q39.35 38.32 36.35 36.67Q33.36 35.02 28.93 35.02L28.93 35.02L22.19 35.02ZM65.66 71.82L57.76 71.82L57.76 28.18L85.71 28.18L85.71 34.81L65.66 34.81L65.66 46.65L83.79 46.65L83.79 53.28L65.66 53.28L65.66 71.82Z"></path></svg>