<svg width="19" height="18" viewBox="0 0 19 18" fill="none" xmlns="http://www.w3.org/2000/svg">
<g clip-path="url(#clip0)">
<path d="M3.26883 0H15.1913C16.999 0 18.4601 1.46115 18.4601 3.26883V14.73C18.4601 16.5377 16.999 17.9988 15.1913 17.9988H3.26883C1.46115 17.9988 0 16.5377 0 14.73V3.26883C0 1.46115 1.46115 0 3.26883 0Z" fill="#00005B"/>
<path d="M7.41463 10.7688H4.55338L3.96848 12.5839C3.95303 12.653 3.89197 12.6994 3.82207 12.6913H2.3771C2.2925 12.6913 2.26969 12.6449 2.2925 12.553L4.76969 5.45316C4.7925 5.37591 4.81604 5.30675 4.84694 5.21479C4.87784 5.05293 4.89329 4.88371 4.89329 4.71449C4.88593 4.67623 4.9161 4.63798 4.95509 4.62988C4.96245 4.62988 4.97054 4.62988 4.9779 4.62988H6.9467C7.00041 4.62988 7.03867 4.65269 7.04676 4.69168L9.8543 12.5758C9.8771 12.6604 9.8543 12.6986 9.77704 12.6986H8.16875C8.11504 12.7067 8.06133 12.6677 8.04588 12.614L7.41463 10.7688ZM4.99997 9.23776H6.95332C6.90697 9.0759 6.84591 8.88387 6.77675 8.68375C6.70759 8.47628 6.63843 8.25335 6.56928 8.02233C6.49202 7.78396 6.42287 7.55294 6.34635 7.31456C6.26983 7.07618 6.19994 6.85326 6.13888 6.6296C6.07707 6.41403 6.02337 6.21391 5.96966 6.02924H5.95421C5.88505 6.36032 5.80044 6.69066 5.69302 7.02174C5.57752 7.39108 5.46201 7.77586 5.33914 8.15991C5.23835 8.55353 5.11548 8.91477 4.99997 9.23776Z" fill="#9999FF"/>
<path d="M14.415 10.0609H11.9768C12.0077 10.2993 12.0842 10.5377 12.2152 10.7459C12.3535 10.9534 12.5463 11.1152 12.7765 11.2072C13.0841 11.3381 13.4225 11.4073 13.7609 11.3992C14.0302 11.3919 14.2995 11.3683 14.5607 11.3146C14.799 11.2837 15.0301 11.2226 15.2456 11.138C15.2839 11.1071 15.3074 11.1226 15.3074 11.1998V12.377C15.3074 12.4079 15.3001 12.4388 15.292 12.469C15.2765 12.4918 15.2611 12.5072 15.2383 12.5227C14.9925 12.6301 14.7387 12.7073 14.4694 12.7537C14.1082 12.8228 13.7462 12.8537 13.3769 12.8457C12.792 12.8457 12.2998 12.7537 11.9003 12.5764C11.5236 12.4145 11.1925 12.1607 10.9313 11.8458C10.6849 11.5456 10.5083 11.2072 10.4009 10.8386C10.2935 10.4773 10.239 10.0999 10.239 9.71513C10.239 9.30018 10.3001 8.89186 10.431 8.49236C10.5539 8.10757 10.7467 7.75369 11.0078 7.4388C11.2617 7.13126 11.5773 6.88479 11.9385 6.70822C12.2998 6.53091 12.7309 6.46984 13.2231 6.46984C13.6307 6.46249 14.0383 6.539 14.4157 6.70822C14.7314 6.84654 15.008 7.05401 15.2236 7.32329C15.4237 7.58521 15.5848 7.87729 15.6849 8.20027C15.7849 8.50781 15.8313 8.82343 15.8313 9.13832C15.8313 9.32299 15.8239 9.48412 15.8158 9.63053C15.8004 9.77694 15.793 9.88435 15.7849 9.95351C15.7776 10.0072 15.7312 10.0536 15.6775 10.0536C15.6312 10.0536 15.5465 10.0617 15.4237 10.069C15.3008 10.0845 15.1544 10.0918 14.9778 10.0918C14.799 10.0918 14.6144 10.0609 14.415 10.0609ZM11.9761 8.93747H13.5991C13.7992 8.93747 13.9449 8.93747 14.0376 8.93011C14.0994 8.92276 14.1604 8.90731 14.2149 8.86831V8.7918C14.2149 8.69174 14.1994 8.59977 14.1685 8.50707C14.0302 8.07594 13.6226 7.78385 13.1687 7.7993C12.7456 7.77649 12.3454 7.99942 12.1453 8.3842C12.0533 8.56078 11.9996 8.74545 11.9761 8.93747Z" fill="#9999FF"/>
</g>
<defs>
<clipPath id="clip0">
<rect width="18.4609" height="18" fill="white"/>
</clipPath>
</defs>
</svg>
