<svg width="12" height="18" viewBox="0 0 12 18" fill="none" xmlns="http://www.w3.org/2000/svg">
<g clip-path="url(#clip0)">
<path d="M3.00018 18C4.65615 18 6.00036 16.6558 6.00036 14.9998V11.9995H3.00018C1.34421 11.9995 0 13.3438 0 14.9998C0 16.6558 1.34421 18 3.00018 18Z" fill="#0ACF83"/>
<path d="M0 8.99999C0 7.34399 1.34421 5.99976 3.00018 5.99976H6.00036V11.9995H3.00018C1.34421 12.0002 0 10.656 0 8.99999Z" fill="#A259FF"/>
<path d="M0 3.00024C0 1.34424 1.34421 0 3.00018 0H6.00036V5.99976H3.00018C1.34421 5.99976 0 4.65624 0 3.00024Z" fill="#F24E1E"/>
<path d="M5.99976 0H8.99994C10.6559 0 12.0001 1.34424 12.0001 3.00024C12.0001 4.65624 10.6559 5.99976 8.99994 5.99976H5.99976V0Z" fill="#FF7262"/>
<path d="M12.0001 9C12.0001 10.656 10.6559 12.0002 8.99994 12.0002C7.34397 12.0002 5.99976 10.656 5.99976 9C5.99976 7.344 7.34397 5.99976 8.99994 5.99976C10.6559 5.99976 12.0001 7.344 12.0001 9Z" fill="#1ABCFE"/>
</g>
<defs>
<clipPath id="clip0">
<rect width="12" height="18" fill="white"/>
</clipPath>
</defs>
</svg>
