<svg width="18" height="18" viewBox="0 0 18 18" fill="none" xmlns="http://www.w3.org/2000/svg">
<path d="M16.2693 7.43579C17.1346 7.39421 17.9008 8.06557 17.9755 8.93185C18.2992 13.1222 14.5332 17.8086 9.12891 17.9587C8.26278 17.9828 7.54124 17.2982 7.51721 16.4298C7.49326 15.5612 8.17587 14.8377 9.042 14.8136C12.6273 14.714 14.8986 11.6172 14.7774 9.08253C14.7359 8.21471 15.4038 7.47745 16.2693 7.43579Z" fill="url(#paint0_linear)"/>
<path d="M1.58562 7.34656C2.45206 7.34656 3.15445 8.05091 3.15445 8.91976C3.15445 12.5461 6.07029 14.893 8.98264 14.8212C9.84885 14.7998 10.5683 15.4866 10.5896 16.3552C10.6109 17.2238 9.92599 17.9453 9.05986 17.9666C4.50554 18.079 0.0012207 14.4328 0.0012207 8.91976C0.0012207 8.05091 0.71918 7.34656 1.58562 7.34656Z" fill="url(#paint1_linear)"/>
<path d="M12.3501 9.04175C12.3501 8.15225 13.0757 7.43115 13.9707 7.43115H16.3324C17.2275 7.43115 17.9755 8.15225 17.9755 9.04175C17.9755 9.93132 17.2275 10.6524 16.3324 10.6524H13.9707C13.0757 10.6524 12.3501 9.93132 12.3501 9.04175Z" fill="url(#paint2_linear)"/>
<path d="M7.39453 9.0441C7.39453 8.15328 8.11549 7.43115 9.00381 7.43115C9.8922 7.43115 10.6132 8.15328 10.6132 9.0441C10.6132 9.93492 9.8922 10.6571 9.00381 10.6571C8.11549 10.6571 7.39453 9.93492 7.39453 9.0441Z" fill="url(#paint3_linear)"/>
<path d="M10.5686 1.50793C10.6046 2.37603 9.93195 3.10899 9.06626 3.14504C5.3292 3.30067 3.04776 6.23787 3.15881 9.02679C3.19338 9.8949 2.53363 10.6268 1.66788 10.6615C0.802128 10.6962 0.0407916 9.99548 0.00622335 9.12737C-0.174743 4.58253 3.6095 0.089616 8.93607 0.00138043C9.80176 -0.0346712 10.5327 0.639836 10.5686 1.50793Z" fill="url(#paint4_linear)"/>
<defs>
<linearGradient id="paint0_linear" x1="9.71054" y1="21.7249" x2="14.5724" y2="22.3498" gradientUnits="userSpaceOnUse">
<stop stop-color="#1A7D75"/>
<stop offset="1" stop-color="#1A8864"/>
</linearGradient>
<linearGradient id="paint1_linear" x1="0.62373" y1="8.5275" x2="-1.84499" y2="15.0185" gradientUnits="userSpaceOnUse">
<stop offset="0.0129262" stop-color="#168A81"/>
<stop offset="1" stop-color="#31A97F"/>
</linearGradient>
<linearGradient id="paint2_linear" x1="4.23259" y1="9.15237" x2="6.44399" y2="12.5054" gradientUnits="userSpaceOnUse">
<stop stop-color="#27A59B"/>
<stop offset="1" stop-color="#64D8A2"/>
</linearGradient>
<linearGradient id="paint3_linear" x1="2.77842" y1="9.38191" x2="7.25223" y2="13.2574" gradientUnits="userSpaceOnUse">
<stop stop-color="#27A59B"/>
<stop offset="1" stop-color="#64D8A2"/>
</linearGradient>
<linearGradient id="paint4_linear" x1="22.075" y1="-15.1327" x2="9.07857" y2="-19.5193" gradientUnits="userSpaceOnUse">
<stop stop-color="#27A59B"/>
<stop offset="1" stop-color="#64D8A2"/>
</linearGradient>
</defs>
</svg>
