<svg width="19" height="18" viewBox="0 0 19 18" fill="none" xmlns="http://www.w3.org/2000/svg">
<path d="M3.26923 0H15.1923C17 0 18.4615 1.46154 18.4615 3.26923V14.7308C18.4615 16.5385 17 18 15.1923 18H3.26923C1.46154 18 0 16.5385 0 14.7308V3.26923C0 1.46154 1.46154 0 3.26923 0Z" fill="#330000"/>
<path d="M8.9462 10.8H6.08466L5.50005 12.6077C5.48466 12.6769 5.42312 12.723 5.35389 12.7154H3.90774C3.82312 12.7154 3.80005 12.6692 3.82312 12.5769L6.30005 5.44613C6.32312 5.3692 6.3462 5.28459 6.37697 5.19228C6.40774 5.03074 6.42312 4.86151 6.42312 4.69228C6.41543 4.65382 6.4462 4.61536 6.48466 4.60767C6.49236 4.60767 6.50005 4.60767 6.50774 4.60767H8.47697C8.53851 4.60767 8.56928 4.63074 8.57697 4.6692L11.3847 12.5923C11.4077 12.6769 11.3847 12.7154 11.3077 12.7154H9.70005C9.6462 12.723 9.59235 12.6846 9.57697 12.6307L8.9462 10.8ZM6.53082 9.23843H8.48466C8.43851 9.07689 8.37697 8.88459 8.30774 8.68459C8.23851 8.47689 8.16928 8.25382 8.10005 8.02305C8.02312 7.78459 7.95389 7.55382 7.87697 7.31536C7.80005 7.0769 7.73082 6.85382 7.66928 6.63074C7.60774 6.41536 7.55389 6.21536 7.50005 6.03074H7.48466C7.41543 6.36151 7.33082 6.69228 7.22312 7.02305C7.10774 7.39228 6.99236 7.77689 6.86928 8.16151C6.76159 8.55382 6.6462 8.91536 6.53082 9.23843Z" fill="#FF9A00"/>
<path d="M13.0616 5.92308C12.8077 5.93077 12.5616 5.83077 12.377 5.65385C12.2 5.46154 12.1077 5.2077 12.1154 4.94616C12.1077 4.68462 12.2077 4.43846 12.3924 4.26154C12.577 4.08462 12.8231 3.99231 13.077 3.99231C13.377 3.99231 13.6077 4.08462 13.777 4.26154C13.9462 4.44616 14.0385 4.69231 14.0308 4.94616C14.0385 5.2077 13.9462 5.46154 13.7616 5.65385C13.5847 5.83846 13.3231 5.93846 13.0616 5.92308ZM12.2001 12.6V6.67693C12.2001 6.6 12.2308 6.56923 12.3001 6.56923H13.8231C13.8924 6.56923 13.9231 6.6077 13.9231 6.67693V12.6C13.9231 12.6846 13.8924 12.7231 13.8231 12.7231H12.3154C12.2385 12.7231 12.2001 12.6769 12.2001 12.6Z" fill="#FF9A00"/>
</svg>
