<svg width="19" height="18" viewBox="0 0 19 18" fill="none" xmlns="http://www.w3.org/2000/svg">
<path d="M3.26923 0H15.1923C17 0 18.4615 1.46154 18.4615 3.26923V14.7308C18.4615 16.5385 17 18 15.1923 18H3.26923C1.46154 18 0 16.5385 0 14.7308V3.26923C0 1.46154 1.46154 0 3.26923 0Z" fill="#49021F"/>
<path d="M6.70782 4.70774V12.6C6.70782 12.6847 6.66935 12.7231 6.60012 12.7231H5.09243C5.0232 12.7231 4.99243 12.6847 4.99243 12.6V4.70774C4.99243 4.63851 5.03089 4.60774 5.10012 4.60774H6.60012C6.64628 4.60004 6.69243 4.63081 6.70012 4.68466C6.70782 4.69235 6.70782 4.70004 6.70782 4.70774Z" fill="#FF3366"/>
<path d="M11.1389 12.8461C10.5697 12.8538 10.0004 12.7384 9.48505 12.5C9.00044 12.2769 8.60044 11.9077 8.32351 11.4538C8.0389 10.9846 7.90044 10.4 7.90044 9.69999C7.89274 9.13076 8.0389 8.56922 8.32351 8.07691C8.61582 7.57691 9.0389 7.16153 9.54659 6.8846C10.0851 6.5846 10.7312 6.43845 11.4927 6.43845C11.5312 6.43845 11.5851 6.43845 11.6543 6.44614C11.7235 6.45383 11.8004 6.45383 11.8927 6.46153V4.03076C11.8927 3.97691 11.9158 3.94614 11.9697 3.94614H13.5312C13.5697 3.93845 13.6004 3.96922 13.6081 3.99999C13.6081 4.00768 13.6081 4.01537 13.6081 4.01537V11.3384C13.6081 11.4769 13.6158 11.6308 13.6235 11.8C13.6389 11.9615 13.6466 12.1154 13.6543 12.2461C13.6543 12.3 13.6312 12.3461 13.5774 12.3692C13.1774 12.5384 12.7543 12.6615 12.3235 12.7385C11.9389 12.8077 11.5389 12.8461 11.1389 12.8461ZM11.8927 11.3077V7.92306C11.8235 7.90768 11.7543 7.8923 11.6851 7.8846C11.6004 7.87691 11.5158 7.86922 11.4312 7.86922C11.1312 7.86922 10.8312 7.93076 10.562 8.06922C10.3004 8.19999 10.0774 8.3923 9.90813 8.63845C9.7389 8.8846 9.65428 9.21537 9.65428 9.61537C9.64659 9.8846 9.69274 10.1538 9.78505 10.4077C9.86197 10.6154 9.97736 10.8 10.1312 10.9538C10.2774 11.0923 10.4543 11.2 10.6543 11.2615C10.862 11.3308 11.0774 11.3615 11.2927 11.3615C11.4081 11.3615 11.5158 11.3538 11.6158 11.3461C11.7158 11.3538 11.8081 11.3384 11.8927 11.3077Z" fill="#FF3366"/>
</svg>
