<svg width="19" height="18" viewBox="0 0 19 18" fill="none" xmlns="http://www.w3.org/2000/svg">
<path d="M3.26923 0H15.1923C17 0 18.4615 1.46154 18.4615 3.26923V14.7308C18.4615 16.5385 17 18 15.1923 18H3.26923C1.46154 18 0 16.5385 0 14.7308V3.26923C0 1.46154 1.46154 0 3.26923 0Z" fill="#001E36"/>
<path d="M9.69239 12.7231H4.81546C4.73085 12.7231 4.69239 12.677 4.69239 12.5847V4.72314C4.68469 4.66929 4.72316 4.62314 4.777 4.61544H6.31546C6.35392 4.60775 6.40008 4.63852 6.40008 4.67698V11.1616H9.95392C10.0308 11.1616 10.0539 11.2001 10.0385 11.2693L9.81546 12.6078C9.81546 12.6462 9.79239 12.677 9.76931 12.7001C9.74623 12.7154 9.72316 12.7231 9.69239 12.7231Z" fill="#31A8FF"/>
<path d="M10.923 6.56925H12.2692C12.3461 6.56925 12.4076 6.62309 12.4307 6.69232C12.4615 6.74617 12.4845 6.80771 12.4922 6.86925C12.5076 6.94617 12.523 7.03079 12.5307 7.10771C12.5384 7.19232 12.5461 7.28463 12.5461 7.38463C12.7769 7.1154 13.0538 6.89232 13.3692 6.72309C13.723 6.53079 14.1153 6.43848 14.5153 6.44617C14.5692 6.43848 14.6153 6.47694 14.623 6.53079V8.06156C14.623 8.12309 14.5845 8.14617 14.4999 8.14617C13.9999 8.1154 13.4999 8.20771 13.0461 8.40771C12.8922 8.47694 12.7461 8.56925 12.6307 8.69232V12.6154C12.6307 12.6923 12.5999 12.7231 12.5307 12.7231H11.0307C10.9692 12.7308 10.9153 12.6923 10.9076 12.6308V8.33848C10.9076 8.15386 10.9076 7.96155 10.8999 7.76155C10.8922 7.56155 10.8922 7.36155 10.8845 7.16155C10.8768 6.99232 10.8615 6.82309 10.8384 6.65386C10.8307 6.6154 10.8538 6.57694 10.8922 6.56925C10.8999 6.56156 10.9076 6.56156 10.923 6.56925Z" fill="#31A8FF"/>
</svg>
