<svg width="18" height="13" viewBox="0 0 18 13" fill="none" xmlns="http://www.w3.org/2000/svg">
<path d="M10.4999 3.84897C10.7823 3.56897 11.0325 3.32076 11.2501 3.10498C11.467 2.88976 11.6738 2.7007 11.8695 2.53897C12.0652 2.37717 12.2609 2.21049 12.4566 2.03761C12.8912 1.67133 13.2499 1.41252 13.5327 1.26139C13.8149 1.11076 14.087 1.03502 14.3479 1.03502C14.7172 1.03502 15.049 1.17003 15.3424 1.4393C15.6359 1.70913 15.7826 2.01654 15.7826 2.36113C15.7826 2.61987 15.7118 2.88418 15.5706 3.15359C15.429 3.42349 15.1738 3.79541 14.8043 4.26937C13.1087 6.46877 12.2609 7.89189 12.2609 8.53874C12.2609 8.81923 12.4021 8.95927 12.6847 8.95927C12.9019 8.95927 13.1413 8.8677 13.4023 8.68422C13.663 8.50136 13.9999 8.18292 14.4131 7.73017C14.6301 7.49312 14.8966 7.16959 15.2119 6.75987C15.5269 6.35042 15.804 5.97306 16.0435 5.62784C16.2825 5.28311 16.4837 5.04558 16.6468 4.91635C16.8098 4.78691 16.9999 4.72226 17.2174 4.72226C17.4345 4.72226 17.6195 4.798 17.7717 4.9485C17.9236 5.09963 18 5.28311 18 5.49847C18 5.90834 17.8095 6.45266 17.4293 7.13179C17.0488 7.811 16.554 8.50638 15.9456 9.21794C15.1845 10.1235 14.4075 10.8245 13.6142 11.3202C12.8204 11.8161 12.0978 12.0643 11.4457 12.0643C10.8368 12.0643 10.337 11.8645 9.94563 11.4659C9.55427 11.0671 9.35874 10.5551 9.35874 9.92957C9.35874 9.60604 9.38573 9.29884 9.44023 9.00774C9.4943 8.71657 9.57572 8.41495 9.6847 8.10209C9.79327 7.78972 9.94563 7.45532 10.1413 7.09943C10.337 6.74362 10.5866 6.35042 10.8913 5.91894C10.9127 5.87598 10.9673 5.78957 11.0544 5.6602C10.4887 6.09183 9.92939 6.63594 9.37498 7.29359C8.8207 7.95145 8.26073 8.79754 7.69563 9.83249C7.28234 10.5228 6.96705 10.9807 6.74993 11.2071C6.53238 11.4335 6.26091 11.5466 5.9348 11.5466C5.58675 11.5466 5.29889 11.4229 5.07059 11.1748C4.84228 10.9271 4.72823 10.6198 4.72823 10.2529C4.72823 10.016 4.75516 9.78395 4.80966 9.5575C4.86373 9.3312 4.97798 9.02392 5.15222 8.63582C5.26057 8.33405 5.40176 8.00508 5.57606 7.6492C5.7498 7.29359 5.90217 7.01854 6.0326 6.82459L6.65213 5.75721C6.69544 5.71425 6.76069 5.60657 6.8478 5.43375C6.41264 5.77897 5.9888 6.17258 5.57606 6.61425C5.16277 7.05647 4.76592 7.51481 4.38588 7.98897C4.00521 8.46342 3.66848 8.94302 3.375 9.42821C3.08145 9.91332 2.8369 10.3823 2.64129 10.8351C2.38036 11.439 2.14699 11.8428 1.94013 12.048C1.73391 12.2527 1.46728 12.3552 1.14117 12.3552C0.815203 12.3552 0.543586 12.2258 0.325969 11.9672C0.109055 11.7084 0 11.3743 0 10.9645C0 10.1453 0.402398 8.73282 1.20642 6.72751C1.66303 5.58488 2.15775 4.52811 2.69009 3.55788C3.22263 2.58758 3.74998 1.75774 4.27163 1.06731C4.57587 0.679272 4.8368 0.404285 5.05434 0.242697C5.27133 0.0808989 5.51081 0 5.77174 0C6.05405 0 6.29859 0.0970786 6.50545 0.291096C6.71182 0.485184 6.81518 0.72272 6.81518 1.00266C6.81518 1.21843 6.76638 1.44488 6.66851 1.68193C6.5707 1.91947 6.3367 2.32877 5.96735 2.91089C5.90217 3.0192 5.8043 3.18588 5.67387 3.41219C5.54344 3.63864 5.38038 3.92478 5.18484 4.26937L4.82604 4.98086C5.47819 4.20465 6.04884 3.54721 6.53801 3.00797C7.0271 2.46923 7.45615 2.03761 7.82606 1.71429C8.19555 1.39083 8.52722 1.15372 8.8207 1.00266C9.11405 0.852158 9.38004 0.77635 9.61952 0.77635C9.92377 0.77635 10.1847 0.878869 10.4022 1.08356C10.6192 1.28873 10.7282 1.54196 10.7282 1.84352C10.7282 2.03761 10.6844 2.25345 10.5978 2.4905C10.5107 2.72804 10.3257 3.09438 10.0435 3.59017L9.35874 4.81927L9.09787 5.30439L9.48902 4.88399C9.88038 4.47454 10.2173 4.12933 10.4999 3.84897Z" fill="#1991EB"/>
</svg>
