<svg width="19" height="18" viewBox="0 0 19 18" fill="none" xmlns="http://www.w3.org/2000/svg">
<path d="M3.26923 0H15.1923C17 0 18.4615 1.46154 18.4615 3.26923V14.7308C18.4615 16.5385 17 18 15.1923 18H3.26923C1.46154 18 0 16.5385 0 14.7308V3.26923C0 1.46154 1.46154 0 3.26923 0Z" fill="#001E36"/>
<path d="M4.15381 12.6231V4.70767C4.15381 4.65383 4.17689 4.62306 4.23073 4.62306C4.3615 4.62306 4.48458 4.62306 4.6615 4.61537C4.84612 4.60767 5.03842 4.60767 5.24612 4.59998C5.45381 4.59229 5.67689 4.59229 5.91535 4.5846C6.15381 4.5769 6.38458 4.5769 6.61535 4.5769C7.24612 4.5769 7.76919 4.65383 8.19996 4.81537C8.58458 4.94614 8.93842 5.16152 9.23073 5.44614C9.47689 5.69229 9.66919 5.99229 9.79227 6.32306C9.90765 6.64614 9.96919 6.9769 9.96919 7.32306C9.96919 7.9846 9.81535 8.53075 9.50765 8.96152C9.19996 9.39229 8.76919 9.71537 8.26919 9.89998C7.74612 10.0923 7.16919 10.1615 6.53842 10.1615C6.35381 10.1615 6.23073 10.1615 6.15381 10.1538C6.07689 10.1461 5.96919 10.1461 5.82304 10.1461V12.6154C5.83073 12.6692 5.79227 12.7154 5.73842 12.7231C5.73073 12.7231 5.72304 12.7231 5.70765 12.7231H4.24612C4.18458 12.7231 4.15381 12.6923 4.15381 12.6231ZM5.83073 6.10767V8.69229C5.93842 8.69998 6.03842 8.70767 6.13073 8.70767H6.53842C6.83842 8.70767 7.13842 8.66152 7.42304 8.56921C7.66919 8.49998 7.88458 8.35383 8.05381 8.16152C8.21535 7.96921 8.29227 7.70767 8.29227 7.36921C8.29996 7.13075 8.23842 6.89229 8.11535 6.6846C7.98458 6.4846 7.79996 6.33075 7.57689 6.24613C7.29227 6.13075 6.98458 6.0846 6.66919 6.09229C6.46919 6.09229 6.29227 6.09229 6.14612 6.09998C5.99227 6.09229 5.88458 6.09998 5.83073 6.10767Z" fill="#31A8FF"/>
<path d="M14.7692 8.22296C14.5384 8.09988 14.2922 8.01527 14.0307 7.96142C13.7461 7.89988 13.4615 7.86142 13.1692 7.86142C13.0153 7.85373 12.8538 7.8768 12.7076 7.91527C12.6076 7.93834 12.523 7.99219 12.4692 8.06911C12.4307 8.13065 12.4076 8.20757 12.4076 8.2768C12.4076 8.34604 12.4384 8.41527 12.4845 8.4768C12.5538 8.56142 12.6461 8.63065 12.7461 8.6845C12.923 8.7768 13.1076 8.86142 13.2922 8.93834C13.7076 9.0768 14.1076 9.26911 14.4769 9.49988C14.7307 9.66142 14.9384 9.8768 15.0846 10.1383C15.2076 10.3845 15.2692 10.6537 15.2615 10.9307C15.2692 11.2922 15.1615 11.6537 14.9615 11.9537C14.7461 12.2614 14.4461 12.4999 14.0999 12.6383C13.723 12.7999 13.2615 12.8845 12.7076 12.8845C12.3538 12.8845 12.0076 12.8537 11.6615 12.7845C11.3922 12.7383 11.123 12.6537 10.8769 12.5383C10.823 12.5076 10.7845 12.4537 10.7922 12.3922V11.0537C10.7922 11.0307 10.7999 10.9999 10.823 10.9845C10.8461 10.9691 10.8692 10.9768 10.8922 10.9922C11.1922 11.1691 11.5076 11.2922 11.8461 11.3691C12.1384 11.446 12.4461 11.4845 12.7538 11.4845C13.0461 11.4845 13.2538 11.446 13.3922 11.3768C13.5153 11.323 13.5999 11.1922 13.5999 11.0537C13.5999 10.946 13.5384 10.846 13.4153 10.746C13.2922 10.646 13.0384 10.5307 12.6615 10.3845C12.2692 10.246 11.9076 10.0614 11.5692 9.83065C11.3307 9.66142 11.1307 9.43834 10.9845 9.1768C10.8615 8.93065 10.7999 8.66142 10.8076 8.39219C10.8076 8.06142 10.8999 7.74604 11.0692 7.46142C11.2615 7.15373 11.5461 6.90757 11.8769 6.75373C12.2384 6.56911 12.6922 6.4845 13.2384 6.4845C13.5538 6.4845 13.8769 6.50757 14.1922 6.55373C14.423 6.5845 14.6461 6.64604 14.8538 6.73065C14.8846 6.73834 14.9153 6.76911 14.9307 6.79988C14.9384 6.83065 14.9461 6.86142 14.9461 6.89219V8.14604C14.9461 8.1768 14.9307 8.20757 14.9076 8.22296C14.8384 8.23834 14.7999 8.23834 14.7692 8.22296Z" fill="#31A8FF"/>
</svg>
