<svg width="19" height="18" viewBox="0 0 19 18" fill="none" xmlns="http://www.w3.org/2000/svg">
<path d="M3.26923 0H15.1923C17 0 18.4615 1.46154 18.4615 3.26923V14.7308C18.4615 16.5385 17 18 15.1923 18H3.26923C1.46154 18 0 16.5385 0 14.7308V3.26923C0 1.46154 1.46154 0 3.26923 0Z" fill="#00005B"/>
<path d="M4.38452 12.6231V4.70767C4.38452 4.65383 4.4076 4.62306 4.46144 4.62306C4.59221 4.62306 4.71529 4.62306 4.89221 4.61537C5.07683 4.60767 5.26913 4.60767 5.47682 4.59998C5.68451 4.59229 5.90759 4.59229 6.14605 4.5846C6.38451 4.5769 6.61528 4.5769 6.84605 4.5769C7.47681 4.5769 7.99989 4.65383 8.43065 4.81537C8.81527 4.94614 9.16911 5.16152 9.46142 5.44614C9.70757 5.69229 9.89987 5.99229 10.023 6.32306C10.1383 6.64614 10.1999 6.97691 10.1999 7.32307C10.1999 7.98461 10.046 8.53076 9.73834 8.96153C9.43065 9.3923 8.99988 9.71538 8.49988 9.9C7.97681 10.0923 7.39989 10.1615 6.76912 10.1615C6.58451 10.1615 6.46143 10.1615 6.38451 10.1538C6.30759 10.1462 6.1999 10.1462 6.05374 10.1462V12.6154C6.06143 12.6692 6.02297 12.7154 5.96913 12.7231H4.47683C4.41529 12.7231 4.38452 12.6923 4.38452 12.6231ZM6.06144 6.10768V8.6923C6.16913 8.69999 6.26913 8.70769 6.36143 8.70769H6.76912C7.06912 8.70769 7.36912 8.66153 7.65373 8.56922C7.89989 8.49999 8.11527 8.35384 8.2845 8.16153C8.44604 7.96922 8.52296 7.70768 8.52296 7.36922C8.53065 7.13076 8.46911 6.8923 8.34604 6.6846C8.21527 6.4846 8.03065 6.33076 7.80758 6.24614C7.52296 6.13075 7.21527 6.0846 6.89989 6.09229C6.69989 6.09229 6.52297 6.09229 6.37682 6.09999C6.22297 6.09229 6.11528 6.09999 6.06144 6.10768Z" fill="#9999FF"/>
<path d="M11.2766 6.55375H12.6228C12.6997 6.55375 12.7612 6.60759 12.7843 6.67682C12.8074 6.73836 12.8228 6.7999 12.8305 6.86913C12.8459 6.94605 12.8612 7.03067 12.8689 7.10759C12.8766 7.19221 12.8843 7.28451 12.8843 7.38451C13.1151 7.11528 13.392 6.89221 13.7074 6.72298C14.0612 6.52298 14.4689 6.42298 14.8766 6.42298C14.9305 6.41528 14.9766 6.45375 14.9843 6.50759V8.03836C14.9843 8.0999 14.9458 8.12297 14.8612 8.12297C14.5843 8.11528 14.2997 8.13836 14.0305 8.1999C13.8074 8.24605 13.592 8.31528 13.3843 8.40759C13.2382 8.47682 13.0997 8.56913 12.992 8.69221V12.6153C12.992 12.6922 12.9612 12.723 12.892 12.723H11.3766C11.3151 12.7307 11.2613 12.6922 11.2536 12.6307V8.33836C11.2536 8.15374 11.2536 7.96144 11.2459 7.76144C11.2382 7.56144 11.2382 7.36144 11.2305 7.16144C11.2305 6.98451 11.2151 6.81528 11.1997 6.63836C11.192 6.5999 11.2151 6.56144 11.2536 6.55375C11.2536 6.54605 11.2689 6.54605 11.2766 6.55375Z" fill="#9999FF"/>
</svg>
