<svg width="20" height="18" viewBox="0 0 20 18" fill="none" xmlns="http://www.w3.org/2000/svg">
<path d="M9.9 0L4.32352 0.590419L0 6.41692L9.9 18L19.8 6.41692L15.4765 0.590419L9.9 0Z" fill="#FDB300"/>
<path d="M0 6.41699L9.9 18.0001L4.00641 6.41699H0Z" fill="#EB6C00"/>
<path d="M15.7935 6.41699L9.8999 18.0001L19.7999 6.41699H15.7935Z" fill="#EB6C00"/>
<path d="M4.00635 6.41699L9.89994 18.0001L15.7935 6.41699H4.00635Z" fill="#FDAD00"/>
<path d="M4.32346 0.590419L4.00635 6.41692L9.89994 0L4.32346 0.590419Z" fill="#FDD231"/>
<path d="M15.7935 6.41692L15.4764 0.590419L9.8999 0L15.7935 6.41692Z" fill="#FDD231"/>
<path d="M15.7937 6.41695H19.8001L15.4766 0.590454L15.7937 6.41695Z" fill="#FDAD00"/>
<path d="M0 6.41695H4.00641L4.32352 0.590454L0 6.41695Z" fill="#FDAD00"/>
<path d="M9.89994 0L4.00635 6.41692H15.7935L9.89994 0Z" fill="#FEEEB7"/>
</svg>
