<svg width="17" height="18" viewBox="0 0 17 18" fill="none" xmlns="http://www.w3.org/2000/svg">
<path d="M9.97631 8.59635H6.31885V10.3507H9.88836C10.0994 10.3507 10.2928 10.2631 10.4509 10.1227C10.5916 9.9823 10.6796 9.77185 10.6796 9.50864C10.6847 9.28277 10.6168 9.06127 10.4861 8.877C10.3454 8.70174 10.1872 8.59635 9.97631 8.59635V8.59635ZM10.0994 6.47371C10.2576 6.36833 10.328 6.1403 10.328 5.84206C10.328 5.57885 10.2576 5.386 10.1345 5.26319C10.0113 5.15781 9.85302 5.08777 9.67728 5.08777H6.31885V6.66656H9.60692C9.78282 6.66656 9.95872 6.57893 10.0994 6.47371V6.47371Z" fill="#09B3AF"/>
<path d="M15.4625 0H1.6594C1.21997 0 0.868164 0.350843 0.868164 0.771886V14.5611C0.868164 14.9821 1.21997 15.2453 1.64181 15.2453H3.68146V17.9996L6.21348 15.2629H15.4625C15.8845 15.2629 16.1482 14.9997 16.1482 14.5611V0.789476C16.1482 0.368433 15.8844 0.0175901 15.4449 0.0175901L15.4625 0ZM13.1414 11.1752C12.9655 11.491 12.7018 11.754 12.3854 11.9472C12.0512 12.1576 11.6819 12.3507 11.2599 12.4383C10.8379 12.5437 10.3809 12.6313 9.90612 12.6313H3.68146V2.8069H10.7501C11.1018 2.8069 11.4006 2.87726 11.6819 3.03509C11.9458 3.17533 12.192 3.36835 12.3854 3.59638C12.7791 4.07534 12.9909 4.67813 12.9831 5.29814C12.9831 5.7542 12.86 6.19284 12.6315 6.61388C12.3942 7.03759 12.0232 7.37073 11.5765 7.56119C12.1391 7.71918 12.5787 7.99982 12.9129 8.40327C13.2294 8.82432 13.3875 9.36817 13.3875 10.0524C13.3875 10.4911 13.2996 10.8595 13.1238 11.1752H13.1414Z" fill="#09B3AF"/>
</svg>
