<svg width="15" height="18" viewBox="0 0 15 18" fill="none" xmlns="http://www.w3.org/2000/svg">
<mask id="mask0" mask-type="alpha" maskUnits="userSpaceOnUse" x="0" y="0" width="15" height="18">
<path d="M0.558214 16.5863L0.000637082 1.72882C-0.00821583 1.4929 0.0754824 1.26285 0.233872 1.08778C0.392262 0.91271 0.6128 0.806469 0.848428 0.791731L13.4858 0.00177197C13.6092 -0.00596023 13.7329 0.0116683 13.8492 0.05357C13.9655 0.0954718 14.0719 0.160758 14.162 0.245402C14.2521 0.330045 14.3239 0.432251 14.373 0.545714C14.4221 0.659176 14.4474 0.78149 14.4474 0.905109V17.095C14.4474 17.2173 14.4226 17.3383 14.3745 17.4508C14.3265 17.5632 14.2561 17.6647 14.1677 17.7492C14.0794 17.8337 13.9748 17.8994 13.8603 17.9423C13.7458 17.9853 13.6238 18.0046 13.5017 17.9991L1.422 17.4564C1.1951 17.4463 0.980311 17.3512 0.820292 17.19C0.660273 17.0288 0.566722 16.8133 0.558214 16.5863Z" fill="white"/>
</mask>
<g mask="url(#mask0)">
<path d="M0.558214 16.5863L0.000637082 1.72882C-0.00821583 1.4929 0.0754824 1.26285 0.233872 1.08778C0.392262 0.91271 0.6128 0.806469 0.848428 0.791731L13.4858 0.00177197C13.6092 -0.00596023 13.7329 0.0116683 13.8492 0.05357C13.9655 0.0954718 14.0719 0.160758 14.162 0.245402C14.2521 0.330045 14.3239 0.432251 14.373 0.545714C14.4221 0.659176 14.4474 0.78149 14.4474 0.905109V17.095C14.4474 17.2173 14.4226 17.3383 14.3745 17.4508C14.3265 17.5632 14.2561 17.6647 14.1677 17.7492C14.0794 17.8337 13.9748 17.8994 13.8603 17.9423C13.7458 17.9853 13.6238 18.0046 13.5017 17.9991L1.422 17.4564C1.1951 17.4463 0.980311 17.3512 0.820292 17.19C0.660273 17.0288 0.566722 16.8133 0.558214 16.5863Z" fill="#FF4785"/>
<path d="M10.6683 2.21255L10.7547 0.136406L12.4901 0L12.5648 2.14101C12.5657 2.16671 12.5592 2.19213 12.5461 2.21427C12.5331 2.23641 12.5139 2.25435 12.491 2.26599C12.4681 2.27762 12.4423 2.28246 12.4167 2.27994C12.3911 2.27742 12.3667 2.26764 12.3465 2.25175L11.6772 1.72441L10.8847 2.32558C10.8643 2.34102 10.84 2.35035 10.8145 2.35248C10.789 2.35461 10.7634 2.34946 10.7407 2.33761C10.7181 2.32577 10.6992 2.30772 10.6864 2.28558C10.6736 2.26344 10.6673 2.23811 10.6683 2.21255ZM8.44876 6.78443C8.44876 7.13652 10.8204 6.96777 11.1389 6.72045C11.1389 4.3228 9.8522 3.0628 7.49638 3.0628C5.14057 3.0628 3.82063 4.34249 3.82063 6.26166C3.82063 9.60448 8.33187 9.66847 8.33187 11.4918C8.33187 12.0037 8.0812 12.3075 7.52978 12.3075C6.81136 12.3075 6.5273 11.9406 6.5607 10.6931C6.5607 10.4224 3.82063 10.338 3.73714 10.6931C3.52444 13.7163 5.40793 14.5884 7.56336 14.5884C9.65181 14.5884 11.2892 13.4752 11.2892 11.4598C11.2892 7.87709 6.71117 7.97306 6.71117 6.19768C6.71117 5.47803 7.2459 5.38205 7.56336 5.38205C7.89734 5.38205 8.49886 5.44094 8.44876 6.78443Z" fill="white"/>
</g>
</svg>
