<svg width="17" height="18" viewBox="0 0 17 18" fill="none" xmlns="http://www.w3.org/2000/svg">
<path d="M7.73344 0L0 4.51348V6.5156L3.29533 8.49401L6.06225 6.985V5.22996L11.921 1.86204L16.0378 4.23565L16.0329 8.98153L10.3884 12.2367L8.4984 11.5369L5.98256 13.1435L6.04646 16.9894L7.77855 17.9906L15.5755 13.543V10.8697L14.6989 11.3421V13.0415L7.78081 16.9679L6.92388 16.4727L6.87691 13.6481L8.50052 12.562L10.4574 13.2614L16.9859 9.49231L16.9239 3.69671L11.9219 0.839092L5.17646 4.71647V6.47063L3.30588 7.46635L0.885789 6.01346V5.02286L7.71287 1.03855L9.14592 1.9527L10.0117 1.45368L7.73344 0ZM12.3459 4.72196L10.8941 5.60377L10.9309 7.30334L12.4197 8.12111L13.8716 7.23931L13.8347 5.5398L12.3459 4.72196ZM12.3626 5.48972L13.1789 5.93813L13.1991 6.86994L12.4031 7.35335L11.5868 6.90501L11.5666 5.9732L12.3626 5.48972ZM4.89015 9.36687L4.69355 8.99399C4.65029 8.91203 4.54891 8.88068 4.46703 8.92392L3.18028 9.60347C3.0984 9.6467 3.06702 9.74826 3.11028 9.83029L3.30695 10.2034C3.35014 10.2853 3.45159 10.3168 3.53347 10.2735L4.82009 9.5937C4.90203 9.5504 4.93335 9.44884 4.89015 9.36687ZM5.63433 10.4991L5.4378 10.1261C5.39328 10.0416 5.28732 10.0113 5.20484 10.0595L3.03489 11.3295C2.95739 11.375 2.92933 11.4733 2.97119 11.5528L3.16773 11.9258C3.21232 12.0103 3.31828 12.0406 3.40069 11.9924L5.5707 10.7224C5.64814 10.677 5.6762 10.5786 5.63433 10.4991ZM5.83695 11.2653L3.28588 12.7333C3.20765 12.7782 3.17899 12.8772 3.22119 12.9571L3.41779 13.3301C3.46211 13.4142 3.56727 13.4446 3.64962 13.3973L6.20069 11.9293C6.27898 11.8843 6.30758 11.7853 6.26545 11.7054L6.06878 11.3325C6.02446 11.2484 5.91929 11.218 5.83695 11.2653Z" fill="white"/>
</svg>
