<svg width="18" height="11" viewBox="0 0 18 11" fill="none" xmlns="http://www.w3.org/2000/svg">
<path d="M9 0C6.6 0 5.1 1.18442 4.5 3.55325C5.4 2.36883 6.45 1.92468 7.65 2.22078C8.33467 2.38972 8.82403 2.87997 9.3657 3.42266C10.2481 4.3067 11.2694 5.32987 13.5 5.32987C15.9 5.32987 17.4 4.14545 18 1.77662C17.1 2.96104 16.05 3.40519 14.85 3.10909C14.1653 2.94015 13.676 2.4499 13.1343 1.90721C12.2519 1.02317 11.2306 0 9 0ZM4.5 5.32987C2.1 5.32987 0.6 6.51429 0 8.88312C0.9 7.6987 1.95 7.25455 3.15 7.55065C3.83467 7.71959 4.32403 8.20984 4.8657 8.75253C5.7481 9.63657 6.76937 10.6597 9 10.6597C11.4 10.6597 12.9 9.47532 13.5 7.10649C12.6 8.29091 11.55 8.73506 10.35 8.43896C9.66533 8.27002 9.17597 7.77977 8.6343 7.23708C7.7519 6.35304 6.73063 5.32987 4.5 5.32987Z" fill="url(#paint0_linear)"/>
<defs>
<linearGradient id="paint0_linear" x1="-0.5" y1="3.41112" x2="14.9439" y2="12.4329" gradientUnits="userSpaceOnUse">
<stop stop-color="#2298BD"/>
<stop offset="1" stop-color="#0ED7B5"/>
</linearGradient>
</defs>
</svg>
