<svg width="19" height="19" viewBox="0 0 19 19" fill="none" xmlns="http://www.w3.org/2000/svg">
<path d="M9.93945 14.196C9.93945 11.8186 11.8668 9.89124 14.2442 9.89124C16.6216 9.89124 18.549 11.8186 18.549 14.196C18.549 16.5734 16.6216 18.5007 14.2442 18.5007C11.8668 18.5007 9.93945 16.5734 9.93945 14.196Z" fill="#838282"/>
<path d="M9.93945 4.30475C9.93945 1.9273 11.8668 0 14.2442 0C16.6216 0 18.549 1.9273 18.549 4.30475V8.17903C18.549 8.41681 18.3562 8.6095 18.1185 8.6095H10.3699C10.1322 8.6095 9.93945 8.41681 9.93945 8.17903V4.30475Z" fill="#999999"/>
<path d="M8.60951 14.196C8.60951 16.5734 6.6822 18.5007 4.30476 18.5007C1.9273 18.5007 0 16.5734 0 14.196V10.3217C0 10.0839 0.192731 9.89124 0.430475 9.89124H8.17903C8.41674 9.89124 8.60951 10.0839 8.60951 10.3217V14.196Z" fill="#747474"/>
</svg>
