<svg width="288" height="57" viewBox="0 0 288 57" fill="none" xmlns="http://www.w3.org/2000/svg">
<path d="M87.8799 23.5577H93.6182L97.5549 34.1018L101.625 23.5577H106.63L110.599 34.1018L114.636 23.5577H119.907L112.935 40.3341H108.064L103.994 30.5648L99.8566 40.3341H94.986L87.8799 23.5577Z" fill="black"/>
<path d="M135.449 31.6194C134.381 32.1586 134.214 32.1919 131.011 32.6299C129.577 32.8323 128.876 33.0005 128.276 33.2366C127.509 33.5397 127.075 34.1796 127.075 34.9208C127.075 36.0662 128.143 36.7736 129.944 36.7736C131.546 36.7736 133.28 36.1669 134.448 35.2239C135.149 34.6177 135.449 33.8091 135.449 32.428V31.6194ZM122.738 28.4192C122.838 26.4988 123.472 25.3534 124.94 24.208C126.541 22.9281 128.81 22.2881 131.745 22.2881C134.848 22.2881 137.417 22.9955 138.852 24.208C140.12 25.2859 140.52 26.4988 140.52 29.1936V36.1669C140.52 37.9865 140.654 38.6935 141.12 39.199V39.7045H136.016L135.582 37.7167C133.681 39.5358 131.512 40.3439 128.476 40.3439C124.306 40.3439 121.737 38.3571 121.737 35.1564C121.737 33.0342 122.838 31.4175 124.74 30.6758C126.107 30.1371 126.107 30.1371 131.346 29.5309C134.715 29.1266 135.482 28.7897 135.482 27.7455C135.482 26.5663 134.181 25.8589 131.946 25.8589C130.678 25.8589 129.677 26.0945 128.943 26.5663C128.41 26.9031 128.176 27.3075 128.009 28.4192H122.738Z" fill="black"/>
<path d="M155.833 39.7042H152.997C150.061 39.7042 148.626 39.2662 147.692 38.087C146.958 37.211 146.858 36.6047 146.858 33.7076V26.6335H144.189V22.9278H146.858V18.1109H151.929V22.9278H155.833V26.6335H151.929V33.3375C151.929 35.2911 152.296 35.6954 154.098 35.6954H155.833V39.7042Z" fill="black"/>
<path d="M169.71 39.7042H166.874C163.938 39.7042 162.503 39.2662 161.569 38.087C160.835 37.211 160.735 36.6047 160.735 33.7076V26.6335H158.066V22.9278H160.735V18.1109H165.806V22.9278H169.71V26.6335H165.806V33.3375C165.806 35.2911 166.173 35.6954 167.975 35.6954H169.71V39.7042Z" fill="black"/>
<path d="M178.582 34.1796C178.815 35.9988 180.016 36.7736 182.719 36.7736C184.987 36.7736 186.322 36.0999 186.322 34.9882C186.322 34.449 185.955 34.011 185.287 33.8091C184.587 33.6404 183.052 33.4385 179.015 33.0005C176.847 32.7311 175.446 32.2593 174.545 31.417C173.644 30.5751 173.177 29.5309 173.177 28.2842C173.177 26.5663 174.145 24.7809 175.646 23.8379C177.247 22.7931 179.416 22.2881 182.185 22.2881C185.922 22.2881 188.991 23.3661 190.325 25.1178C190.959 25.9596 191.159 26.6338 191.193 27.9474H185.688C185.554 27.1388 185.388 26.802 184.854 26.4651C184.22 26.0608 183.119 25.8252 181.885 25.8252C179.85 25.8252 178.715 26.3981 178.715 27.4086C178.715 28.4866 179.116 28.6211 186.222 29.3285C189.824 29.6653 191.76 31.417 191.76 34.2471C191.76 35.9988 190.859 37.6492 189.391 38.6602C187.689 39.8052 185.521 40.3439 182.485 40.3439C179.049 40.3439 176.58 39.6703 174.812 38.2559C173.611 37.2791 173.077 36.1669 172.91 34.1796H178.582Z" fill="white"/>
<path d="M210.44 29.396C210.04 27.1725 208.305 25.8589 205.803 25.8589C203.234 25.8589 201.566 27.1051 201.199 29.396H210.44ZM215.845 34.5502C214.01 38.4578 210.741 40.3439 205.703 40.3439C199.398 40.3439 195.561 37.0097 195.561 31.4849C195.561 25.8252 199.43 22.2881 205.636 22.2881C212.009 22.2881 216.012 25.9596 216.012 31.8218V32.5287H200.932C201.032 33.8428 201.232 34.449 201.766 35.1564C202.667 36.2681 204.001 36.8074 205.836 36.8074C207.905 36.8074 208.972 36.2344 210.107 34.5502H215.845Z" fill="white"/>
<path d="M220.981 22.928H226.053V25.7239C226.92 24.6127 227.387 24.1409 228.088 23.6691C229.222 22.8943 230.824 22.49 232.525 22.49C235.16 22.49 237.362 23.4335 238.43 25.0502C239.097 26.0275 239.264 26.8361 239.264 29.2614V39.7044H234.159V30.3727C234.159 28.9246 233.959 28.2509 233.425 27.6105C232.792 26.9031 231.691 26.4992 230.489 26.4992C228.789 26.4992 227.253 27.3074 226.586 28.554C226.186 29.2614 226.053 30.0358 226.053 31.3162V39.7044H220.981V22.928Z" fill="white"/>
<path d="M249.569 34.1796C249.803 35.9988 251.004 36.7736 253.706 36.7736C255.974 36.7736 257.309 36.0999 257.309 34.9882C257.309 34.449 256.942 34.011 256.275 33.8091C255.574 33.6404 254.04 33.4385 250.003 33.0005C247.834 32.7311 246.433 32.2593 245.532 31.417C244.631 30.5751 244.164 29.5309 244.164 28.2842C244.164 26.5663 245.132 24.7809 246.633 23.8379C248.235 22.7931 250.403 22.2881 253.172 22.2881C256.909 22.2881 259.978 23.3661 261.312 25.1178C261.947 25.9596 262.147 26.6338 262.18 27.9474H256.675C256.541 27.1388 256.375 26.802 255.841 26.4651C255.207 26.0608 254.107 25.8252 252.872 25.8252C250.837 25.8252 249.703 26.3981 249.703 27.4086C249.703 28.4866 250.103 28.6211 257.209 29.3285C260.812 29.6653 262.747 31.417 262.747 34.2471C262.747 35.9988 261.846 37.6492 260.378 38.6602C258.677 39.8052 256.508 40.3439 253.472 40.3439C250.036 40.3439 247.567 39.6703 245.799 38.2559C244.598 37.2791 244.064 36.1669 243.897 34.1796H249.569Z" fill="white"/>
<path d="M281.43 29.396C281.029 27.1725 279.294 25.8589 276.792 25.8589C274.223 25.8589 272.555 27.1051 272.188 29.396H281.43ZM286.834 34.5502C284.999 38.4578 281.73 40.3439 276.692 40.3439C270.387 40.3439 266.55 37.0097 266.55 31.4849C266.55 25.8252 270.42 22.2881 276.625 22.2881C282.998 22.2881 287.001 25.9596 287.001 31.8218V32.5287H271.922C272.021 33.8428 272.222 34.449 272.755 35.1564C273.656 36.2681 274.991 36.8074 276.825 36.8074C278.894 36.8074 279.962 36.2344 281.096 34.5502H286.834Z" fill="white"/>
<path d="M13.6949 11.2403V15.3226H4.36122V41.0758H13.7278V45.0541H0.121094V11.2403H13.6949Z" fill="white"/>
<path d="M44.446 45.054V40.9717H53.7797V15.2185H44.4131V11.2402H58.0198V45.054H44.446Z" fill="white"/>
<path d="M20.3413 1.96238L23.8497 0.142791L40.7424 33.4978L24.8953 29.0482L37.6834 54.3311L34.1736 56.1525L17.2744 22.7591L33.1541 27.26L20.3413 1.96238Z" fill="white"/>
</svg>
