<svg width="23" height="18" viewBox="0 0 23 18" fill="none" xmlns="http://www.w3.org/2000/svg">
<path fill-rule="evenodd" clip-rule="evenodd" d="M2.39529 12.8187L0 10.1398L7.33186 7.47107L8.47308 10.6066L2.39529 12.8187Z" fill="#F89920"/>
<path fill-rule="evenodd" clip-rule="evenodd" d="M2.37774 12.7706L2.26489 16.3625L9.59676 13.6938L8.45553 10.5585L2.37774 12.7706Z" fill="#FFBE22"/>
<path fill-rule="evenodd" clip-rule="evenodd" d="M22.7527 5.41492C23.7989 8.44577 20.428 12.4284 15.1846 14.337C9.9407 16.2454 4.7986 15.3613 3.65161 12.3669L22.7527 5.41492Z" fill="#F0670A"/>
<path fill-rule="evenodd" clip-rule="evenodd" d="M22.7528 5.41463C21.6133 2.41259 16.4657 1.52492 11.2165 3.4352C5.96707 5.34572 2.59455 9.33483 3.65149 12.3671L22.7528 5.41463Z" fill="#FFD00E"/>
<path fill-rule="evenodd" clip-rule="evenodd" d="M22.7523 5.41504C23.4044 7.44297 19.7447 10.6013 14.5174 12.5037C9.28978 14.4065 4.45622 14.3395 3.65234 12.3668L22.7523 5.41504Z" fill="#F89920"/>
<path fill-rule="evenodd" clip-rule="evenodd" d="M22.7523 5.41494C21.9604 3.43287 17.1194 3.36252 11.8834 5.26848C6.64746 7.1742 2.98441 10.3395 3.65166 12.367L22.7523 5.41494Z" fill="#FFBE22"/>
<path d="M13.9408 2.66399C13.4418 0.938829 12.8742 -0.0179917 12.2288 0.000256298C10.981 0.0357919 10.5615 3.99225 10.9654 9.06208C11.3736 14.1857 12.4322 18.0346 13.7521 17.9998C14.5391 17.9791 14.9824 16.72 15.138 14.5338C15.1411 14.4892 15.0914 14.5202 15.0942 14.4745C15.0942 14.4745 15.0878 14.3948 15.0582 14.3929L14.8909 14.3821C14.7538 16.5046 14.3384 17.7277 13.7453 17.7433C12.6605 17.7717 11.6132 13.9643 11.2213 9.04191C10.8355 4.20018 11.2509 0.284778 12.2363 0.256686C12.7028 0.24348 13.2255 1.12467 13.688 2.71345C13.688 2.71345 13.941 2.6647 13.9408 2.66398L13.9408 2.66399Z" fill="#F0670A"/>
<path d="M7.75737 1.43295C6.69442 2.08772 8.30937 5.72364 11.194 9.91252C14.1091 14.1456 16.9505 16.9495 18.0761 16.2595C18.7052 15.8739 18.5287 14.7031 17.7184 12.9359C17.7118 12.92 17.7021 12.9055 17.6898 12.8934C17.6775 12.8813 17.6628 12.8718 17.6468 12.8655C17.6307 12.8592 17.6136 12.8562 17.5963 12.8567C17.5791 12.8572 17.5621 12.8611 17.5464 12.8683C17.5307 12.8755 17.5167 12.8858 17.505 12.8986C17.4934 12.9113 17.4845 12.9263 17.4788 12.9426C17.4731 12.9589 17.4708 12.9761 17.4719 12.9934C17.4731 13.0106 17.4777 13.0274 17.4855 13.0428C18.2385 14.6858 18.4003 15.7598 17.9419 16.0407C17.0168 16.6076 14.2064 13.8342 11.4053 9.76678C8.65056 5.76686 7.05242 2.16864 7.89207 1.65145C8.3377 1.37677 9.39801 2.03946 10.799 3.47073C10.8146 3.48658 10.9042 3.57949 10.9241 3.5855C10.9676 3.5987 10.9457 3.50674 10.9805 3.47265C10.9926 3.46087 11.0022 3.44682 11.0089 3.43132C11.0155 3.41581 11.019 3.39915 11.0192 3.38229C11.0193 3.36543 11.0162 3.3487 11.0099 3.33306C11.0036 3.31741 10.9943 3.30316 10.9825 3.29113C9.48565 1.76214 8.36243 1.06007 7.75737 1.43271V1.43295Z" fill="#F0670A"/>
</svg>
